<mxfile host="65bd71144e">
    <diagram id="l3irZdsdmyyxGiwXJfFx" name="Page-1">
        <mxGraphModel dx="906" dy="991" grid="1" gridSize="10" guides="1" tooltips="1" connect="1" arrows="1" fold="1" page="0" pageScale="1" pageWidth="827" pageHeight="1169" math="0" shadow="0">
            <root>
                <mxCell id="0"/>
                <mxCell id="1" parent="0"/>
                <mxCell id="18" value="&lt;&lt;interface&gt;&gt;&#10;Builder" style="swimlane;fontStyle=3;align=center;verticalAlign=top;childLayout=stackLayout;horizontal=1;startSize=40;horizontalStack=0;resizeParent=1;resizeParentMax=0;resizeLast=0;collapsible=1;marginBottom=0;" vertex="1" parent="1">
                    <mxGeometry x="540" y="210" width="160" height="152" as="geometry"/>
                </mxCell>
                <mxCell id="20" value="" style="line;strokeWidth=1;fillColor=none;align=left;verticalAlign=middle;spacingTop=-1;spacingLeft=3;spacingRight=3;rotatable=0;labelPosition=right;points=[];portConstraint=eastwest;strokeColor=inherit;" vertex="1" parent="18">
                    <mxGeometry y="40" width="160" height="8" as="geometry"/>
                </mxCell>
                <mxCell id="34" value="+ reset()" style="text;strokeColor=none;fillColor=none;align=left;verticalAlign=top;spacingLeft=4;spacingRight=4;overflow=hidden;rotatable=0;points=[[0,0.5],[1,0.5]];portConstraint=eastwest;fontStyle=2" vertex="1" parent="18">
                    <mxGeometry y="48" width="160" height="26" as="geometry"/>
                </mxCell>
                <mxCell id="21" value="+ buildStepA()" style="text;strokeColor=none;fillColor=none;align=left;verticalAlign=top;spacingLeft=4;spacingRight=4;overflow=hidden;rotatable=0;points=[[0,0.5],[1,0.5]];portConstraint=eastwest;fontStyle=2" vertex="1" parent="18">
                    <mxGeometry y="74" width="160" height="26" as="geometry"/>
                </mxCell>
                <mxCell id="35" value="+ buildStepB()" style="text;strokeColor=none;fillColor=none;align=left;verticalAlign=top;spacingLeft=4;spacingRight=4;overflow=hidden;rotatable=0;points=[[0,0.5],[1,0.5]];portConstraint=eastwest;fontStyle=2" vertex="1" parent="18">
                    <mxGeometry y="100" width="160" height="26" as="geometry"/>
                </mxCell>
                <mxCell id="36" value="+ buildStepC()" style="text;strokeColor=none;fillColor=none;align=left;verticalAlign=top;spacingLeft=4;spacingRight=4;overflow=hidden;rotatable=0;points=[[0,0.5],[1,0.5]];portConstraint=eastwest;fontStyle=2" vertex="1" parent="18">
                    <mxGeometry y="126" width="160" height="26" as="geometry"/>
                </mxCell>
                <mxCell id="22" value="Director" style="swimlane;fontStyle=1;align=center;verticalAlign=top;childLayout=stackLayout;horizontal=1;startSize=26;horizontalStack=0;resizeParent=1;resizeParentMax=0;resizeLast=0;collapsible=1;marginBottom=0;" vertex="1" parent="1">
                    <mxGeometry x="870" y="210" width="160" height="112" as="geometry"/>
                </mxCell>
                <mxCell id="23" value="- builder: Builder" style="text;strokeColor=none;fillColor=none;align=left;verticalAlign=top;spacingLeft=4;spacingRight=4;overflow=hidden;rotatable=0;points=[[0,0.5],[1,0.5]];portConstraint=eastwest;" vertex="1" parent="22">
                    <mxGeometry y="26" width="160" height="26" as="geometry"/>
                </mxCell>
                <mxCell id="24" value="" style="line;strokeWidth=1;fillColor=none;align=left;verticalAlign=middle;spacingTop=-1;spacingLeft=3;spacingRight=3;rotatable=0;labelPosition=right;points=[];portConstraint=eastwest;strokeColor=inherit;" vertex="1" parent="22">
                    <mxGeometry y="52" width="160" height="8" as="geometry"/>
                </mxCell>
                <mxCell id="25" value="+ Director(builder)" style="text;strokeColor=none;fillColor=none;align=left;verticalAlign=top;spacingLeft=4;spacingRight=4;overflow=hidden;rotatable=0;points=[[0,0.5],[1,0.5]];portConstraint=eastwest;" vertex="1" parent="22">
                    <mxGeometry y="60" width="160" height="26" as="geometry"/>
                </mxCell>
                <mxCell id="54" value="+ make(type: String)" style="text;strokeColor=none;fillColor=none;align=left;verticalAlign=top;spacingLeft=4;spacingRight=4;overflow=hidden;rotatable=0;points=[[0,0.5],[1,0.5]];portConstraint=eastwest;" vertex="1" parent="22">
                    <mxGeometry y="86" width="160" height="26" as="geometry"/>
                </mxCell>
                <mxCell id="55" style="edgeStyle=none;html=1;endArrow=block;endFill=0;dashed=1;endSize=10;" edge="1" parent="1" source="37" target="18">
                    <mxGeometry relative="1" as="geometry"/>
                </mxCell>
                <mxCell id="37" value="ConcreteBuilder1" style="swimlane;fontStyle=1;align=center;verticalAlign=top;childLayout=stackLayout;horizontal=1;startSize=30;horizontalStack=0;resizeParent=1;resizeParentMax=0;resizeLast=0;collapsible=1;marginBottom=0;" vertex="1" parent="1">
                    <mxGeometry x="420" y="450" width="160" height="194" as="geometry"/>
                </mxCell>
                <mxCell id="49" value="- result: Product1" style="text;strokeColor=none;fillColor=none;align=left;verticalAlign=top;spacingLeft=4;spacingRight=4;overflow=hidden;rotatable=0;points=[[0,0.5],[1,0.5]];portConstraint=eastwest;" vertex="1" parent="37">
                    <mxGeometry y="30" width="160" height="26" as="geometry"/>
                </mxCell>
                <mxCell id="38" value="" style="line;strokeWidth=1;fillColor=none;align=left;verticalAlign=middle;spacingTop=-1;spacingLeft=3;spacingRight=3;rotatable=0;labelPosition=right;points=[];portConstraint=eastwest;strokeColor=inherit;" vertex="1" parent="37">
                    <mxGeometry y="56" width="160" height="8" as="geometry"/>
                </mxCell>
                <mxCell id="39" value="+ reset()" style="text;strokeColor=none;fillColor=none;align=left;verticalAlign=top;spacingLeft=4;spacingRight=4;overflow=hidden;rotatable=0;points=[[0,0.5],[1,0.5]];portConstraint=eastwest;" vertex="1" parent="37">
                    <mxGeometry y="64" width="160" height="26" as="geometry"/>
                </mxCell>
                <mxCell id="40" value="+ buildStepA()" style="text;strokeColor=none;fillColor=none;align=left;verticalAlign=top;spacingLeft=4;spacingRight=4;overflow=hidden;rotatable=0;points=[[0,0.5],[1,0.5]];portConstraint=eastwest;" vertex="1" parent="37">
                    <mxGeometry y="90" width="160" height="26" as="geometry"/>
                </mxCell>
                <mxCell id="41" value="+ buildStepB()" style="text;strokeColor=none;fillColor=none;align=left;verticalAlign=top;spacingLeft=4;spacingRight=4;overflow=hidden;rotatable=0;points=[[0,0.5],[1,0.5]];portConstraint=eastwest;" vertex="1" parent="37">
                    <mxGeometry y="116" width="160" height="26" as="geometry"/>
                </mxCell>
                <mxCell id="42" value="+ buildStepC()" style="text;strokeColor=none;fillColor=none;align=left;verticalAlign=top;spacingLeft=4;spacingRight=4;overflow=hidden;rotatable=0;points=[[0,0.5],[1,0.5]];portConstraint=eastwest;" vertex="1" parent="37">
                    <mxGeometry y="142" width="160" height="26" as="geometry"/>
                </mxCell>
                <mxCell id="52" value="+getResult():ObjectA" style="text;strokeColor=none;fillColor=none;align=left;verticalAlign=top;spacingLeft=4;spacingRight=4;overflow=hidden;rotatable=0;points=[[0,0.5],[1,0.5]];portConstraint=eastwest;" vertex="1" parent="37">
                    <mxGeometry y="168" width="160" height="26" as="geometry"/>
                </mxCell>
                <mxCell id="56" style="edgeStyle=none;html=1;endArrow=block;endFill=0;dashed=1;endSize=10;" edge="1" parent="1" source="43" target="18">
                    <mxGeometry relative="1" as="geometry"/>
                </mxCell>
                <mxCell id="43" value="ConcreteBuilder2" style="swimlane;fontStyle=1;align=center;verticalAlign=top;childLayout=stackLayout;horizontal=1;startSize=30;horizontalStack=0;resizeParent=1;resizeParentMax=0;resizeLast=0;collapsible=1;marginBottom=0;" vertex="1" parent="1">
                    <mxGeometry x="640" y="450" width="160" height="194" as="geometry"/>
                </mxCell>
                <mxCell id="51" value="- result: Product2" style="text;strokeColor=none;fillColor=none;align=left;verticalAlign=top;spacingLeft=4;spacingRight=4;overflow=hidden;rotatable=0;points=[[0,0.5],[1,0.5]];portConstraint=eastwest;" vertex="1" parent="43">
                    <mxGeometry y="30" width="160" height="26" as="geometry"/>
                </mxCell>
                <mxCell id="44" value="" style="line;strokeWidth=1;fillColor=none;align=left;verticalAlign=middle;spacingTop=-1;spacingLeft=3;spacingRight=3;rotatable=0;labelPosition=right;points=[];portConstraint=eastwest;strokeColor=inherit;" vertex="1" parent="43">
                    <mxGeometry y="56" width="160" height="8" as="geometry"/>
                </mxCell>
                <mxCell id="45" value="+ reset()" style="text;strokeColor=none;fillColor=none;align=left;verticalAlign=top;spacingLeft=4;spacingRight=4;overflow=hidden;rotatable=0;points=[[0,0.5],[1,0.5]];portConstraint=eastwest;" vertex="1" parent="43">
                    <mxGeometry y="64" width="160" height="26" as="geometry"/>
                </mxCell>
                <mxCell id="46" value="+ buildStepA()" style="text;strokeColor=none;fillColor=none;align=left;verticalAlign=top;spacingLeft=4;spacingRight=4;overflow=hidden;rotatable=0;points=[[0,0.5],[1,0.5]];portConstraint=eastwest;" vertex="1" parent="43">
                    <mxGeometry y="90" width="160" height="26" as="geometry"/>
                </mxCell>
                <mxCell id="47" value="+ buildStepB()" style="text;strokeColor=none;fillColor=none;align=left;verticalAlign=top;spacingLeft=4;spacingRight=4;overflow=hidden;rotatable=0;points=[[0,0.5],[1,0.5]];portConstraint=eastwest;" vertex="1" parent="43">
                    <mxGeometry y="116" width="160" height="26" as="geometry"/>
                </mxCell>
                <mxCell id="48" value="+ buildStepC()" style="text;strokeColor=none;fillColor=none;align=left;verticalAlign=top;spacingLeft=4;spacingRight=4;overflow=hidden;rotatable=0;points=[[0,0.5],[1,0.5]];portConstraint=eastwest;" vertex="1" parent="43">
                    <mxGeometry y="142" width="160" height="26" as="geometry"/>
                </mxCell>
                <mxCell id="53" value="+getResult():ObjectB" style="text;strokeColor=none;fillColor=none;align=left;verticalAlign=top;spacingLeft=4;spacingRight=4;overflow=hidden;rotatable=0;points=[[0,0.5],[1,0.5]];portConstraint=eastwest;" vertex="1" parent="43">
                    <mxGeometry y="168" width="160" height="26" as="geometry"/>
                </mxCell>
                <mxCell id="65" style="edgeStyle=orthogonalEdgeStyle;html=1;entryX=0.5;entryY=0;entryDx=0;entryDy=0;endSize=10;dashed=1;" edge="1" parent="1" source="61" target="37">
                    <mxGeometry relative="1" as="geometry"/>
                </mxCell>
                <mxCell id="66" style="edgeStyle=none;html=1;entryX=0.5;entryY=0;entryDx=0;entryDy=0;endSize=10;dashed=1;" edge="1" parent="1" source="61" target="22">
                    <mxGeometry relative="1" as="geometry"/>
                </mxCell>
                <mxCell id="61" value="Client" style="swimlane;fontStyle=1;align=center;verticalAlign=middle;childLayout=stackLayout;horizontal=1;startSize=29;horizontalStack=0;resizeParent=1;resizeParentMax=0;resizeLast=0;collapsible=0;marginBottom=0;html=1;" vertex="1" parent="1">
                    <mxGeometry x="660" y="90" width="140" height="30" as="geometry"/>
                </mxCell>
                <mxCell id="64" style="edgeStyle=none;html=1;entryX=1;entryY=0.25;entryDx=0;entryDy=0;endSize=10;" edge="1" parent="1" source="23" target="18">
                    <mxGeometry relative="1" as="geometry"/>
                </mxCell>
                <mxCell id="70" style="edgeStyle=none;html=1;entryX=0.5;entryY=0;entryDx=0;entryDy=0;dashed=1;endArrow=circle;endFill=0;endSize=6;" edge="1" parent="1" source="68" target="61">
                    <mxGeometry relative="1" as="geometry"/>
                </mxCell>
                <mxCell id="68" value="" style="shape=image;verticalLabelPosition=bottom;labelBackgroundColor=default;verticalAlign=top;aspect=fixed;imageAspect=0;image=data:image/png,iVBORw0KGgoAAAANSUhEUgAAANwAAABcCAYAAAAF6ttZAAAABHNCSVQICAgIfAhkiAAAABl0RVh0U29mdHdhcmUAZ25vbWUtc2NyZWVuc2hvdO8Dvz4AAAAmdEVYdENyZWF0aW9uIFRpbWUAbWnpIDMwIG9jdCAyMDI0IDE2OjU1OjA5k65rlgAAIABJREFUeJztnXl0lNX9/1+z7zPZF7KQAElIIOwB9SsgiFQURalIa0HEnqrY06NttdqK4lItBYsttkW7iBVwqVgKYlEEQQTZBGWHJCSQhYTsmWQms8/vD373+mQIKgEBdd7n5GTmmee523M/937uZ1WFw+EwUUQRxQWB+mI3IIoovkuIElwUUVxARAkuiiguIKIEF0UUFxBRgosiiguIr0xwUWFmFN92iDn+dc51VVQtEEUUFw7aL7vB4/EQCoUIhUKoVKoL0aYoorgoCIfDqFQqjEYjGo3ma6mjS4ITFXs8Hvbu3YtGoyEYDAJEiS6KbyXC4TDhcBiTyYRerycvLw+VSiVp4XyhS4ITFfj9fnQ6HS6X62uj+CiiuFQQDodpa2vDbDZTUlJCTk7OeSe6L2Upw+EwGo2GXr16oVarzzvFRxHFxUY4HEar1XLy5Enq6upwu92o1WqKi4vJzc39+nc4JVGFQiEA1Gq1vBYluCi+bVCpVKhUKkKhEBqNBrfbTTgcpri4mJycHNTq86NB+0KWUnwOh8OEQiG5w0URxbcJ4vwWCoUIh8NYLBZsNhuVlZWoVCqKi4vP25nuS1lK+Jz6oztcFN9WKHe4cDhMTEwMwWCQmpoaudOdD/YyamkSRRQKCKILBoM4HA5SU1Npa2ujo6OD4uLic+bwukVwSo38hdDOn2+Idnf1F/n7pYjutr+re7q6v6v/3XnXX1bfmcq+GOOurF+tVqPT6VCr1SQkJJCRkYHH4zkvRPeVWMpIRPKy3yTJpRgs0QchhRW6xoul4I9sl/JzZHsix10c6JXtV5YT+eyXvbvIo8OZfv+y/igFb0Lophxf0T4hGxDPKD9faGg0GrxeLydPnuwkMNTr9bS3t6NSqTh8+DB9+vRBq9WedRu7RXBdvbBvCtEpJ4FWq8VgMOB0OmltbcVms2EymaSSX3n/hWqXmGxfpIJRTtRAIEB7ezsAdrsdnU6Hx+M5IyFFXler1XJidXXvma5/0bgo50QoFMJkMuFyufD7/Vgslk71qdVqfD6fXPQuxoIn2issqlwuF06n87RxUqvVtLe3k5CQQHNzM0lJSWc977tNcDqdjueee45evXoxZcoUWltb0Wg0XUo4z4SuVvOuVjmxgivZD6UQR/k98vczfddqtbS0tLBkyRL27duHyWTC6XRy9913M2rUKLmaKVd55QodWW4kwXTVRgHlih7ZNjHxvF5vp7FU3hsKhbBYLGzbto2XX34ZnU6Hz+cDYNKkSVxzzTUEAoFOO4uY/AAWi4VFixZRVlbG3LlzaWpq4plnnmHWrFn06tVLlhUIBLDZbGzcuJH169fzyCOPnLGPol3K9qpUKux2OyUlJSxcuJCJEydy9dVX43a7ZTvWrl3LypUrycjIYNasWRgMhk679IWAaLvVaiU2NvaMdYfDYbxeLz6fr9tsZbdZSpVKRW1tLYmJiZjNZoLBIMFgEL/f3yUhdYXInVLwzYFAAL1ej0qlwu/34/f7gVMT1WAwyAHyeDxoNBr0ej1+v59AICC3f7/fTzAYRKvVotVq5Xexe/j9fubNm0dLSwt33303iYmJ1NXVkZGRgc/nQ6fTYTQaUalU+Hw+/H4/4XAYvV4vCUOn0xEIBPB6vbIPoo2CRfV6vXLSCxZETDij0YhWqyUcDuN2uzEYDNTW1vLqq6/yk5/8hLi4ONra2lCr1ZhMJrkDuFwu1Go1LS0tdHR0MGvWLMxmM2vXruUf//gHvXr1Ijc3VxJZMBiUNoKBQAC/309hYSFpaWnynqqqKnw+n1wM1Go1ZrMZq9WK3++nurpajrtarcZoNMp35fV65dgA6HQ62fd33nmHZcuW0draKtsRDocxGAzU1NSwbNkyZsyYwerVq/nPf/7Dj3/8Y9ra2jrNta8bSoKz2Wxd3iPe+dGjR7vkCL4qukVwogF6vZ5QKMSmTZsoKytj6NChcsIqdXaCeCKfF5MYTvHOFRUVtLS0kJ2dzc6dO6mrq2PQoEGkpaUB0NHRwY4dO2hoaCA1NZXBgwdTX19PeXk5aWlppKen09raytGjR8nKyiI+Pp6amhqqqqrIzs4mLi4On8+HxWJh5cqVHDt2jIULF5KVlUVHRwc5OTl4PB45mTds2IDX62XAgAFkZGQQCAQoLy/HZrNRV1fH4cOH6dmzJ4MGDZIKU4/Hw/bt26mqqiI9PZ0hQ4ZQX1+PWq2mqqoKl8vFqFGj0Gq1HDx4kMOHDxMbG0tRURF+v58NGzawa9cu8vPzycjIoG/fvqhUKvbs2UNJSQlJSUkMHjxYErHdbqdv377ExcWRkpLCpk2bqKmpoV+/fmzfvp309HTi4+MJBoMcOHCAmJgY0tLS6NWrF8nJyfK9GAwG+c60Wi2BQIBdu3bR3t5OSUkJVqtV9tHr9bJ9+3ZOnjxJTk4O/fr1IxQKUVZWhslk4tChQ9jtdnJzc/nggw+44447eP/99zstxiaTiXfffZeUlBRuvPFGwuEwr7zyCjfddJNcwC/UDqfkHL7onvMh0Ok2wQne/O233+bQoUMEAgH+/e9/M3v2bPr16yd3n1AoxAsvvEB1dbVcAb1eL5mZmcyYMUN21GQysWHDBlatWkVmZiYlJSWEQiGysrKYO3cuoVCIefPmsXfvXvR6PR0dHdx+++3k5uby2GOP8X//93/MmzePtWvXMn/+fKZPn859993HCy+8wDvvvMPChQtJSEiQE2rfvn0MHDiQHj160NTUJCeCXq/nxIkTPP300xgMBmw2G8uWLeP+++9n1KhRvPPOO+zevZuYmBisVitLly7lnnvuYeLEiTQ2NjJ//nxOnDhBTk4OH3/8Mbm5uWzZsoXVq1djsVjIyclh3LhxrFixgldffZXc3FyOHTvGli1bmDp1Ktu3b0etVrNmzRpyc3MZNGgQixcv5u233yYvL4/S0lIGDRrEnDlzAOQZzu/389Zbb5GSkkJBQQE+n4+FCxfy4x//mDFjxtDe3s7ixYsZPnw4P/nJT1i8eDGHDh3ij3/8o3yfYmdzu908++yzVFVVkZOTw5EjR0hMTJS7/dy5c6moqCAtLY1XX32VGTNmcMstt/Cf//yHffv2YTAYuOKKKxg+fDhPPPEERqOR1atXd2Kb29ra2LNnDyNHjsTv95Ofn49KpWL//v2MHj2atra2CyYX+Kr65fPB5nab4MTg9+7dm9/+9rdotVp+9atf8c4771BYWNjpcF1YWEhmZiZa7anqAoEAMTExncoTk93lcmE2m3nkkUdYsWIFhw4d4sSJE5SUlLB161Zuv/12rr76ahYuXMiaNWu44ooryM/P5+jRo1RVVbFv3z60Wi379++nqqqK8vJycnJyyMzMxO/3o9Fo6OjooKmpSRqnKgfSZDKxYsUK9Ho98+bNw2w2M3/+fJYuXcrIkSMJBoPo9Xoef/xxUlJSeOKJJ9iyZQuTJ0/mo48+oqysjOeee07qb+x2Ox6PB7vdzrPPPovFYqGuro4333yT++67j+uuu469e/cye/ZsNBoN99xzD3/4wx/4zW9+Q0ZGBiUlJbzzzjvMnj2bkSNH8vHHHzN37lwqKysxm83U19fzzDPP4HQ6qaio4N577yU1NRW32y1ZdPEetFotGo1GLjqCPRbvU+w8y5cv59ixY8yfP5+cnBzefPNN/vvf/2KxWHj77beprq7mT3/6E+np6SxevJi1a9dyyy234PV6ycrK4vHHHycYDEpuoaOjo9O71mg0NDU10djYSF5eHu3t7aSkpBAXF8exY8e46qqrujstL3l0m+DEOWjQoEFYrVZ8Ph9FRUV8/PHHnXh1lUpFW1sbzc3NnQhOfBYQEz4YDHLjjTfyve99j5KSEvbs2YPL5aKsrAyr1Up1dTXvvfcera2t1NXVYTab6d+/PytXrmTDhg0cO3aMjIwMKisr2bp1K5WVlVx33XUYjUYpzROTTUjzRP0q1SmXpKqqKoqKirDZbHg8HsaOHcvOnTtpbm4mFApRWFhISkoKPp+PrKwsdu/ejd/v59ixY/Tt25fMzEyam5ulh4Xf7yctLY2EhARcLhe1tbUEg0Hef/99Nm7cSCAQwOfz0dbWhtFoBD5nc06cOEEoFGLVqlWsWrUKr9dLIBDA5XIRDoexWq1MmTIFnU7HJ598wpIlS0hOTuaKK66QZ1alkOdMUEpHDx8+zLBhw+jRo4ckFvFbRUUFHo+Hv/zlL6hUKurr6/H7/fh8PoLBINnZ2dhsNhoaGk6TtCqlq21tbQQCAcnuGo1GKf2LnD/fJnRbSgmnJqk4hIvDt9KNRwxaY2MjJ0+eRKfTAcgzXiTEpBcCGGUZYvA1Gg2BQIARI0YwatQoLBYLAwcO5O2332b9+vUEg0GmTp3KkiVLWL16tSQQpWJTp9ORmprK4cOHCQQCaDQaufuJfghxuRC8AHIiKAUwyjaKhSQcDst7lX0KBAJyzNRqNaNGjcJkMhEIBJg4cSK5ubkUFxdLVlycc/V6PWPGjJHtnzx5MpmZmRw9ehSLxcKAAQMwm82MGDGCw4cPs23bNq688kpZt2iXaFtXk1gpyRRCI+Vz4h6fz0dqairjx4/H7Xaj0WiIi4uT7zMQCHT57kTbxW9ifJQS6Mg58W0jNjhHxXc4HMZoNGK1WmltbWXr1q3k5OSg1WqlWFutVnPHHXfIySyeDwaDuN3uTmJ2QVDiObVajUajQavV0qNHD9rb2yksLGTy5MlUVlbi9/ux2+1kZWXJXW348OGMGzeOjRs3snfvXnr16iWFIeIFejwerrrqKtauXcvy5cu57bbb0Gq1dHR0oNFoSE1N5bPPPuP2228nLi6OPXv2YDabiYuLkwQrIIQXGo2G9PR0Vq5cSWNjIykpKXJHFL/DqQmZmppKKBTC4XAwduxYwuEwTU1NGAwG4NSCZDabMZvNpKWl4fP5SEpKYtiwYYRCIRobGzEajZI1NBgMmM1mjh8/TmNjI0VFRVKK2tDQgMPh4NChQxw7dozLL7/8jOoWs9mMVqslOTmZI0eOoNFosFqtHDlyREoe09PT2b17N0OGDCE2Nhav1yvPWxqNRpYp3qnZbEav16PT6TCbzTgcDlpaWrBarYTDYZxOJ7GxsQA4nU6SkpJOmyvfJnR7hxPEtmrVKhoaGiguLsbj8XDTTTfJlVwMent7+2nsTFd6NI/HQ2Njo5RmdXR00NjYSEdHB2PGjOHdd9/l+eef5z//+Q8nTpxg6NChzJkzh9TUVLKystizZw+DBw8mJiaGIUOG8MEHH3Dddddht9txuVxyknm9Xvr168eMGTNYsmQJW7duJTs7m7KyMiZOnMgtt9zCQw89xIMPPkhSUhJbtmzhzjvvxGg00tbWJiV6KpUKr9dLe3s7Ho+HkSNHsmbNGn75y18ycOBAeaYKhUI4nU65k6akpHDNNdfw9NNPs2nTJjweDz6fj4ceeojExETcbjfz588nPT2dadOmceWVV/LrX/+aUaNG0dLSgl6vZ/bs2YTDYY4ePcqzzz5LOBzmyJEjJCUlcc011+D3+xkyZAjLli2jurqa6upqNBoNzc3NcmwFiy36s3DhQiZNmsSECRNYv349Dz30ELGxsRw6dAibzUZjYyNjxoxh3bp13HPPPQwePJiysjKGDRvGHXfcgdPpJCYmBrVaTTAYxG638+qrr7Jz504qKip47bXX+PDDD7nzzjtJSkrCarVSXl5O3759aWxspKmpiczMzE5z5NsGzeOPP/74mX70+Xw0NjYSDAaJi4s7TZrTs2dPYmNjCQQC5OfnM2PGDJKTkyXLqGSpxI4l/iKVynBKYJGfn0///v0xm80YDAYKCgro27cvGRkZDBo0iKSkJJKSkhg9erQkJpVKRVxcHNnZ2YwcORKtVkt8fDzx8fGMGTMGh8PRyYJB7LCFhYUMHDhQslLZ2dkUFhbSq1cvBg0aJA/93//+97nyyivx+XzY7Xb69OlDYmIiwWAQs9lMdnY2KSkp2Gw2ioqKJFEXFhaSn5+P3W6nV69epKSkyMVqwIAB9OjRg7a2NuLi4hgzZgyJiYlYrVZSU1Pxer1kZGTQp08fioqKSEhIoK2tjeTkZK666iri4uIwGAzEx8ejUqmw2WyMHDmSadOmSd1Z3759MZlMdHR0cO211zJ+/HhiY2OJj4/HYDDQu3dvkpOT0el09OrVC5fLRXJyMkVFRfTr1w+Xy0VcXBzTpk0jOzub+Ph4HA4Hw4cPlyqQvLw8Lr/8ckwmE3a7nZycHOLi4uTxor29HZPJxOWXX052djYJCQlSJXHgwAGqqqq49tpr+fTTT9myZQu33XYbOp2uSxbzYkOlUtHS0oJarcZqtWK1WuX1r1xG+AtO0m1tbRQXF0tppPIQLKSKgrURCl2/399JB/dVGyOUoUajEbfbjc/nw2g0dvpuMBjQ6/XyXOX1euX5UafTSUGIOHuYTCZ5T+RuKia+iGERDAblJPJ6vbIt4twhlNUmkwlAChMEuyTY48gxcblc6HQ66dSoNAQQL0wIoESZQskN4HK5gFNWGeJen8+Hx+ORynkxuYVSXCmcMJlMUkEdDAal1FAEyolUwou+mkym087cXq+XYDCITqfDZDJJoujo6JD6zVAoREdHhzwDWywWDAaDPLfCKdbRYDCwZ88e5s6dy/z581myZAlms5lf/OIXUtl/NvPn64bo67Fjx9BqtaSkpJCcnHzWgp1uERx8rp1XPq40IxL3fJWOKMsTk+dM35UEozyHKPVISgGAuKcrllb5XGSZZ+qb0qBV+bwgkMjylGZc4mwS2T5lvZFCBmU9Xd2rvK5sp3hetFf5LpT966rdkf1XcgZdtV3UqRSEKJXJkfaRShXECy+8wCeffEJcXBwPPPAAcXFxnY4klwrOF8Gdk9AkciJ3R5QbORGUbITye2R9ypcfqUtTPn+mupQTtKsyI68rxeZnquNMbVTe19ViEdkXZXu7ev7LylDWH1lvZLvPNH5d9V95f1f1RkqoRTmRYyQQCASYNm0ao0ePxuFwEB8fL7mRS4nYzifOSfEt/itXbYHzLWWKPO991euR3yMndVdE9WVt6G4bu9sX5e+RO2Dk9cj38GXlfpXfzqZPX4bIc7Rer6egoECqlyIXgm8buk1wSijZszPtNpciIiduV+zY+ehPVzvF2XADXS0Sgl2LPOsoCe9s67lQiByDjo6O01j/S6m95xPnheDg1CBarVZpNXEpvmj4/CXrdDqp0BVW/C6Xq9P5wW634/P5ZH/OtV7l+e9sxkZJTMIbQXhUiOhSSlbYaDTS0dFxyU7eM7HNkb99G3FO3gLKA7TBYGDFihVSfB/pz/VF5UDXbjzK80Uku9rV9a/yXUgS9+7dy8aNG6UlR0ZGBiNHjiQhIQGfz0cgEODFF19k8ODBnVQESkSycl1dj6xX2HIqiSiyT8rrys96vZ7a2lq2bt3KoEGD+OSTT5g4caKULmq1Wtra2li+fDkTJkyQC6BoQxQXH92OaaKcVFqtFqvVyv/+9z8OHDjQyShWEGRXf5GEo2QrNBqNtLxQliWuC0maUq8XeaBXflcuDnq9nkOHDrFlyxZpBb927VoefPBBDh48iNFoxOfzsW/fPmprazs51grLF0FEKpUKg8HQyWxKjIter5d90Ov1HD9+nE2bNnV6Xtkn5S6oFDoI8bxGo+Hll1+moqKC5uZm3nzzTUKhkBTxC73gtm3bePPNN6V3RhSXDrpFcGJiaLVajEYjDQ0N1NTUYLVaO+mgxH/hyKj8M5vNp+0Qfr8fj8eDyWSira2N48ePdyIYcb2iokLqkrxeL263u5PBq9I6XeiVlNIvUWZeXh6zZs3iV7/6lbR+/+tf/4rL5cJisTBnzhzGjBkjdXsajQaXy0VDQ4M0uAWkH5/ouyCg2tpajh8/LvVf69evZ8WKFZ3YVGWf4JTVRzgclradXq+XmpoajEYj+/bt4/Dhw9JULjY2Fo1GQ2VlpdT3mc1mfvzjH7Nx40YqKirk4vdFwqAoLhzOmqUUL0+n09HY2Mjf/vY3qqqqMJvNlJWVMWrUqE4i9HA4zMaNG2UIBjglDo6Li6OoqAg4JWwxm828/fbbbNmyhf79+7N582Y8Hg/Dhg1j1qxZaDQaXnvtNd577z1cLhcOh4O77roLjUbDc889x5gxY5g1axabN2/mhRde4NZbb2Xy5MksXbpUmlvl5uYSCATk5PP5fNI63WazMXPmTB5++GGOHDnC0KFDeeqppxg/fjzjx4/npZdeory8nMrKSpKSkpg9ezYHDhxg0aJF0jTrhhtuYMqUKTQ0NLBo0SJqamrw+XwMGTKE3NxcNm7ciF6v5xe/+AUTJkxg6tSpvPLKK6xfvx69Xo9Wq+XOO+9k2LBhrFq1ip07d1JfX49KpWLBggVs3ryZPn36kJGRwZEjR3C73cydO5eGhgZ8Ph+33nor48ePJy8vj/j4eD7++GN+9KMfSa/zKC4+zvotKFmdv//979TW1vLzn/+c+++/n6SkpE5WHXCKQA8ePMiOHTvYtWsXu3btYufOnRw8eLCTh61KpaK9vZ29e/fywQcfkJOTg0ajYcOGDdTU1PDJJ5/wj3/8g8TERL7//e/T3t7Ov/71L8xmM36/ny1btuByudi9ezfFxcV8/PHHuN1udu/ejcvlokePHl2eZwSL6PV6iY+PJyYmhpqaGnQ6HdXV1bS3t6PVamltbWXXrl1MnTqVGTNm4PV6WbRoEQMGDGDBggVMmzaNFStW0NjYyBtvvEFFRQW/+MUveOihhxg9ejTDhw9n6NChxMXF8dOf/pSRI0eydetWXn/9dW655RYeffRR4uLi+Mtf/iJ37R07dnD99dfzs5/9jGAwyJEjRxgwYIDkLpxOJ2lpaTz++OMUFRWxePFiampqpPnZoUOHTpPERnFx0a0dTlihl5SUcO+99zJw4EBUKhUOh+M013iVSsX48eM7CR2Eh3ekQlSn06FSqZg2bRq33nor8+bNY8WKFTQ3N7Nnzx40Gg2FhYX079+f3bt3s3//fhwOB0OGDGHLli1s376dI0eOkJycTHl5Obt376a6upoRI0Zgt9s7CSu+qH9iIRBCjnD4lHnX0KFDGT9+PAC7d++msbERs9nM9u3b6ejowO12U1ZWxuHDh5k8eTKDBg2itbVVso49evSgubmZoUOHolKpWL58Obm5udx44434/X5mzpzJz3/+c6qqqlCr1fTp04ebbroJt9uNy+WiqalJxiEJBALExsZy2223yUVo69atlJWVkZeXR48ePTh27Jg0s7oUJcbfRXSL4NRqNR6PR1qEt7a2yvOL8j7x/4033uD48eNSgODxeOjduzc/+9nPutQjORwOwuFTpj/CJ629vR2DwcDmzZv56KOPZEYfo9HIwIED+eCDD3jvvfdoa2vjmmuuYf369bz77ru0tLQwYMAASTiR5xkRy1HEHWxvbyc5OVnuhqJt4pn29nb0er0MnFNXV0dDQwPhcJjvfe972Gw2/H4/DocDl8slM7HodDr8fj+hUEjumm63G4fDgd/vp7W1FavVKsP2Cbjdbrxer3SWFYGNhLAqFArR2toq1QUiopR4H8Ku9FwC30Rx/nDWBCcEJkKq1tLSQmJiIu3t7dKfLFLx+rOf/azTNUG0XZn8CNcOARE2LiYmBrfbzdSpU7nmmmtoaWmRq3xOTg6JiYns37+f3r17M2XKFA4cOMD27dtJSEigoKCgkz+c+K/T6bDZbLJtK1aswG63d4rJomyvSqWS/RMGxlOnTiU/P1+2WZwJa2trsdlsnaSZom6bzYZWqyUmJoZjx46hUqlITEzk0KFDeDwe4uLi5L3iOTHeQr8mBD8Wi4XY2FiqqqpwOp0kJCQAyHObILboDndpoFsEJ1zjs7KyePnllzEajezZs4fS0lKuuuqqTrubWHm7srJQsm9CStne3i4nqN/vl674w4cPZ/ny5SxZsoQjR45QUlJCWloa9913H+np6WRlZbFx40YmTZpEz549KSgo4LPPPmP48OEkJiZKvaCYfKFQiNraWjZv3kxbWxvbt2/ns88+44EHHsBiscjQ1kIRLnYZsbv37t2btLQ05s2bx/Tp02lra6O6upof/vCHjBgxgmXLluFwODAajdTX13PTTTdhs9koLS1l3bp1xMfHc8UVV/D222+zaNEiLr/8cl555RWy/r8z7YYNG+QiIXYsh8Mh2c1QKERTUxMffvghNpuNpUuX0rt3b/Ly8ujo6ODkyZPExsZisVjkDhjFxcdZ+8MJotFqtfTp04fS0lI++OADTCYTY8aMwWg0kpub22mXUrJykWydUr9VV1dHe3s7l19+OT169KCyslJKKocOHUpMTAzV1dVUVlai1WoZNmwYWVlZmM1m3G43brebm2++Wfp7lZeXc/3115Odnd1JmKPRaGhoaODo0aPs3buX0tJSEhISuOeeexg4cKAkrLKyMhmj5Pjx49jtdgoLCwkEAuh0Ovr3709xcTGbN2+muLiY5ORkCgoKyM/Pp7W1lU2bNnHw4EHsdjsDBgyQQVG3bduGSqVi3LhxpKam8tFHH7F9+3bi4uK45557iI2NpaamhlAoRFFREYFAALPZzNGjRzl27BhjxowhFArR0tLCzp072bdvHzk5OfzkJz/BZDLh8/l4/fXXueyyy+jbt+8ZQ1pEcXYQHN1F8YcLhULSPMrtdmOxWKT+qDuhwoXQRKfTyUA5wtdM+GGJydTR0YHNZpO7jdhJBc4UcVi5YAjWMBAISN8vEVVX9FMZOFXs0sqdUvjgiXOdwWCQQVpFeG8hMBHxP4QAxmg0Sp1jOBzG4/FgsVhk0FkhsPF4PFJtsmfPHubNm8fcuXPJzMyU4y2U7263G6PRyCeffMLzzz/P/PnziYmJuSTdXb5pEHPsXN1zum1ponSaFI6MHR0dpwXP+SpliUb7fD7a29ulolj5HZAKbjFZlXaESgsW8b1zy2jwAAAYR0lEQVSr5Bbis/hNKJedTudpNqCCpRTOl0oWT/Rf5D8X8SFF3W1tbbL/gvBEnWKhEM6b4rOIv68cW3FW6+joYODAgRQUFPCPf/yDYDAobT8DgQBOp5NwOIzL5WLx4sVce+21JCcnf+vdXb5pOC/+cF1R+Vc1nFX+/lV9zSKJ6Ksg0volsp2Rwp7I+pWfu+q/uCeyPOX1SMuarsYwcmGIlKjOnDmT7du34/F4OkkfRQAfl8vF2LFj+d73vicJNkpslw66zVJGceEhzMZE2IlIIRQgvQVE6ASB6Ds7N1xUlrKrxsDnbvri2rlaNyjLiiz7y56LfPZsnr/UoCSsYDDYKQy4Ut0g2FkRB+VsWPsoLgzOC8GJFTbSav5cX7SSvRLZWr7KiqKcfBqNRgYKiiz3m4LI9ioFQpELXOS4f5P6+V3AefGHE6xOeXk5FotFhkk7GyiV4pHXg8GgFLubzebTbDC7mlTh8Cn3mPr6ehoaGrBaraSnp39jhQiRSvvufI7i4uOc/eEEu2YymfjjH//Ihg0bJFFErr5nYjfPxDoKiV5bWxtPPvkk5eXlGI3GL4yZHyn1XLhwIWvXrmXevHmUlpbKsHLRlT+Ki4Fu+8OJCWu1WjGZTDKOY1de0SIUtwjuKr6LzyLrpTB3EuUJnzlAZoIRxK30u7NYLDIepNlsJhwOY7FYeO+992hpaeGBBx6gd+/eLFu27Kylm1FEcT7RLeNl+Pyc9N5777Fz506MRiPV1dVcfvnlnWJ3eDwe1q1bh8PhYMeOHbjdbiZNmoTT6WTdunUYDAYmT55Mbm4uJ06cYMOGDZw8eRK3201RURHjxo2T9QpiW7VqFY2Njdx8882Ew2Heeust6U0wbtw4ioqKcLvdrF+/nvHjx2M2m5kwYQJPPfUUpaWl9OrVS2YtjSKKC4lu+cMJ4+W33nqLF198kdTUVNLT0zu55igV0v/973958cUXpRX+448/zhtvvEFhYSEnTpzgpZdekuZWhw4dIi0tjfj4eF544QUOHDggLT7MZjMHDhzg+eefJzY2FrvdzmuvvcaKFStkSPHnnnuOkydPSl+2wsJCnE4nvXr1IiYmhgMHDkjBThRRXGh0a4cTDpnr1q3j9ttv57bbbkOlUrFz585OeQWEMCUcDnPLLbcwbdo09uzZwwMPPMD06dMZO3YsKSkpvPTSS7S2tlJQUMCf/vQn4JR1hsj40rt3b7RaLc3Nzfz73/9m0qRJ3HjjjdTV1bFhwwZuuukmrr32WlpbW9m7dy+HDh0iJiYGlUol87jp9XppE9lVJOYoorgQ6BbBaTQaaQrVp08fmpqaZD4xQWgiVj+c2hXj4+Ol3aPFYiEhIUFaQggi7ejo4OWXX6a0tFRKGIWQQ6/X8+c//5mEhAR+9KMf4Xa7aW5uRq1Ws2HDBrZu3SqVkxaLhZaWFgwGAyaTSbra2Gw2nE7nN1JKGcW3A91yz4HPzZWEkbGIRCUmvdVq7ZS0UNhHRhKk+K7T6Vi6dCk7d+5k+vTp2O12/v73v0shTCAQ4Nprr+WDDz5g5cqVTJ8+HZ1Oh8/n47bbbmPw4MHSiDgmJobVq1cDp4ebizTHiiKKC4luSSmDwaBMKr9u3TrUajW7du2iuLhYpvbdsGEDLS0tXSbXU052pZK6vLyczMxMrr/+ehnGQSisfT4fV155JTNmzOCVV15h586dZGVlkZSUxPr161GpTjl2VlZW4vV6iYuLw+Px0NrailarJRAI0NTUREJCQtQ8LYqLhm4JTQKBABaLhR/84Ads376dO++8k5deeom+ffvi8XioqKhg3rx5FBcXS5G/8nnlf6WFv0gwf9NNN7F06VKSkpJoamqSu2dTUxMTJkzg6quv5o9//CMNDQ3cddddlJaWcu+99/Lzn/+cF198kdbWVjIzMwmFQlRUVEjXlePHj5Ofnx8NNxDFRcNZGy8r81+L2ItVVVX07NkTi8WCy+XCarVSWVlJjx49MBgM0tLDZDLh9/tpaWkhJiYGnU6Hx+ORSQlFZOH6+nqysrKAU6ECYmJiqK+vlx7Ufr+furo6YmJicDgctLa2Ul5ejlqtJjMzU+rpHnnkEdLT0/nVr37FO++8w5IlS5g3b56MSBx1yoziq+J8GS+f0xnO6/WSnJxMWlqaDJAjLEHy8vLktZSUFOkLJhobCATk/RaLRTp6pqSkkJ6ejs/nA5DEIcLcibNfz549ZeBYi8XC4MGDAfD7/fj9fgBuuOEGFi5cyNixY1m5ciWjR4+WmUSjxBbFxUC3c3yLs1dksgvBrglnTXGP0sJD+V04iornu0qeoVJ97mktyhDli6BDypiTQuI5YsQIxo4dy+rVq8nIyGDSpEkyC2n0DBfFxUC3HVDF/zNN3DM5ckY+09X3rnA2ZQj4fD7uuOOOTuyjYImjgpMoLgbOaYf7MtH62U7oyHIjP3enHKEbVApKzuT9fT5xpj58XXV+0buIfFfnUn9X/Yqs64vu6+47/bag28bLsgC1upM+Tfn72eq6unoBZ8P+deWBoPwsDr4XYoc7U7vPV52R3heRZYv3Ap+z+eer7shylByPsl3KBSbS5O+7im675wiLE5/PR1tbG6FQCIvFgkaj6RRzpDvlinNYpFvPlyHS8VLZBiGg8Xq98jz4dSq/lW1XLkjnq07leTZyx9ZqtTIAk1ar7ZSp6Fz7HVlnZCQ3cY8Yg8j7z1c7vqnoFkspwrYtXbqUjRs3YjKZ8Hq95Obm8sMf/pDk5OROgo/IySGuCSitT8xmMytXrqSyspJ7771Xhu5WRkGOfHnKa4DMUaAUtNjtdvbv38+f//xn7r77bgoLC09LjKicBJH1nInV7QrK37VaLQsWLGDIkCFcffXVMsrZmVityHLP1E9xTSQjEZG//H4/f/7znyktLZUCpXHjxnHjjTdKjwvxDpV9E9dE/cIqKHLxFHpTm83GunXr2Lp1Kw899JC0VwU6CcVUKhX//Oc/aW9vx2g0cs8995z2vr5L6PYOp9VqOXbsGImJidx///3cfvvtlJaW8uyzzxIIBDAajWi1WiwWCzqdTqoELBYLFovltASGarUas9mM3W7H6XRSXV0tV2uRM01MMGXyQo1Gg8ViwW63o9VqsdvtHDx4kBdeeEH6yYXDYZYvX84zzzxDeXl5p1xyAuK7iLVpNBqx2+2dkkJGThAlEXwRsRw/fpy2tjZsNhtWq7VT35V1h8OnvNTFGEVGrDYYDNhsNunzZzAYaGxs5Pnnn8fr9WKz2QiFQpSUlDBo0CAeeOABRo4cyeLFi9myZYvM1aDX62U5Sk5CXLfZbHLclGEzxPjodDo0Gg2tra1UVFQQCoWIjY1l06ZNvPbaa8TGxkqb1vfff5/9+/czZcoU9uzZw9q1azs5KH/XdrlzklJqNBpSU1Pp378/+fn5JCQk8Nhjj1FaWorNZkOn07F//3569uxJ3759qaur47PPPgNgwIABJCQk4PV6ZXKMTz75BK/XS21tLSaTCa1WS1VVFW63m+zsbFQqFQ0NDTQ3N5OdnY1er6epqYk9e/bQ1tZGQUEBycnJbNiwgU8//ZRt27aRkpICwIcffshdd93F0qVLu0xbJYi5oqICk8lEfX29zETTp08fmVdOubMoM72K8nw+32luSmKib9y4kZMnTzJ06FCSkpI6BZ2FUwRVWVlJSUkJoVCIrKws0tPTZTKQ0tJSjhw5QkxMDEOGDKGjo4OPPvqIbdu20bdvX3r27ElGRgZ6vZ5evXpRUFBAv3792L9/P59++iljx47FYDBw9OjRTuVotVqZ2HHv3r1oNBoKCgpIT0+npKQEk8lEamoqAMeOHSMcDtO/f3/UarW0o62oqGD9+vW4XC769etHQkICKSkprFmzhvHjxzNgwADGjx/P//73P8aNGyePHt81fWi3Y5oo2cDIFFWBQICFCxfS3t6Ox+PhjjvuwGw2M2fOHBwOB2q1mqVLl/Lwww+Tn5/PyZMn+f3vfy9Nsg4ePEi/fv2wWCysX7+ew4cP87vf/Q6NRsPOnTtZu3YtCxcupLy8nN/+9rfSAqW0tJTLLruMTz/9lHA4zNKlSxk1ahQ333wzv/vd7yR70xUrEwwGsVqtvP/++2zdupXY2Fh0Oh1Llixh5syZXH/99TL0nMlkYteuXaxcuVJGToZTrNSUKVPIz8/vFFRWr9fz1ltv0aNHDzweD8uXL2f27NlkZ2dLR1ij0ciqVat4/fXX6d27Ny0tLdTX1/PYY48xePBgmVchOzubyspKBgwYwC233MKmTZtQq9X897//JT8/n7vuuksajYs4M1VVVeTn52M0Glm5ciVLliwhKyuL6upqcnJymD17NnV1dTz99NM4HA4A9u7dy8MPP8yyZcvIyMjg7rvvRqPR8O9//xutVsuQIUOkDtVoNLJt2zbKy8sxmUwsXryYqVOnyoSXl112GW1tbQwbNozVq1dTWlpK//79OwXy/a7gnIIIqdVqaVZVWVnJyy+/TO/evenTpw8tLS1cdtllzJw5E61Wy5NPPklKSgpPPfUU4XCYOXPmsGzZMv70pz+xaNEiXC4X8+fPJyUlhUWLFlFWVibrEOc3OEXoIujpm2++SWJiIs888wyhUAiPx0N8fDxNTU28//77/OEPf5BKcbVaLVNHfZE4W0R8fvjhh+nRowfPP/88K1euZNy4cfLZYDBIbGwsgwYNkvm34dRCY7fbT9v1PB4POTk5PProo/j9fh588EHeffdd7r//fjweDwaDgZqaGpYtW8Ydd9zBpEmTKC8v5/HHHycYDNLc3Mzrr7/OT3/6U2644Qb27t3Lo48+ytSpU5k1axYLFizgkUceITU1VaYe3rBhA8ePH2fPnj0kJydz3XXXceLECV5//XXuvfdebrjhBvbt28fs2bOpqqqS2Xfmzp1LWloa9fX1kmVX5kyPlPKq1Wra29u59dZbqa6upr6+nkcffRS1Ws3KlStJTEwkISEBj8dDRkYGZrOZiooKBg4c2N2p941GtwlOSP127NjBvHnz8Pl8ZGVlMXPmTEkk/fr1w2g00tLSQk1NDRMnTpTGzGPGjOHVV1+loaGBsrIy/u///o/U1FQZUbgrohCHfmFWdvz4ca677jqMRiNOp1MaOYsJImw+lWeFSH2c8r8QtPTv35/ExESCwSDDhw9n27ZtNDc3Ex8fL83GwuGwND8TUKYzFhC73LBhw+T5bMiQIZSVlcndTavVUlZWhtlsZvTo0TK/tzjD1tTUEAgE2LRpE9u2bcPv98vw7GazWfZVqdyPiYmhoaGB2tpa/vCHP5CWlsb27dsJBoOdyvH5fNTV1VFYWEhMTAy/+c1vuPHGGxkzZkyXkuIzvRelkES0pb6+Xp7nhKAtNjaWxsbG0ySr3xV0m+BEvJKhQ4dy7733EgqFSEhIkIFKhcRMsB2CxREsqDj/CCmkXq/H7/d3kkgqIaRlSiFGMBiUrjfC304pARN1dRV2/EweDEIY4/P5MBgMndqu7LvT6eTo0aOdghn5/X769evXpXoiEAjg8/lOy9cmFgmllE/syKI9It/A8OHDpa3quHHjyM3NpbS0VJ6HRA6GUCjE8OHDmTBhAjNmzGDp0qU88cQTkvVXljN+/Hh69+6Nw+Fgzpw5vPvuu/zrX/+iuLiYX/7yl3JXE8lLdDrdaTu4kFwKiHYEAoHTpMuRySG/S8QG50BwAjabjdTUVFpbW2ViC7HKiZdhs9mIjY1l79693HzzzWi1Wvbt24fdbicpKQmr1Sp96cLhMGVlZfJFmUwmnE4nOp0Os9nMwYMHpfQsPj6e3bt3M3nyZHQ6HW1tbcDnsSxtNptcAITEUa1WY7PZsNvt0gNdQDkp4uPjCYVC7Nixg5iYGOLj46WQw+fzMXDgQEaMGHHa5Ovo6Ogyz7nRaCQuLo6mpiY+/fRTBg0aJL3aExMTSUpKorGxkdraWgYPHsyhQ4doaWlBpVKRlJREMBgkOTmZ0aNHA9DS0iI5Ab/fj9lsxuFwSLWDyOJz99138+ijj/Lhhx/Sr18/AoEASUlJXHXVVQA4nU4CgQAdHR1kZGRw3333kZuby3PPPcesWbMwGo00NjZit9tpamri6NGjFBQUdFIZOBwOuYCGQiEcDgehUAir1SqFLGI3czqd2O3209Qs3xWck2mXyN7i9/vlqix2EPEiBSZNmsS8efOYPXs2JpOJLVu2yMyoY8eO5dlnn+WRRx5BpVJRUlJCYmIibrebfv368cYbb/DMM8+g0Wg4evSoJKjrr7+euXPn8vDDD8uz269//WsSExOprq7miSeeICMjgylTpvC3v/2N4uJiamtr+etf/0pmZiYzZsyQ6ZxEv0Ra4wULFtDQ0MCnn37KL3/5y06uSWLX6Sryl3KhEdBoNLz11ltUVVVx8OBBAoEAU6ZMYffu3Tz22GM8/fTTFBQUkJ2dzZNPPklRURH79+8HTgliUlNTGTt2LE899RSbN2+WySIffPBBmX12wYIF9OzZk4kTJ9Le3k4gEMDj8TB48GAmTJjAs88+y4svvsi1117Lk08+yZYtW2QGokceeYStW7fy7rvv0rdvX3bs2EFeXh5Wq5WCggL++c9/MnfuXJm/z+PxEAgEiImJoaysjN/97nf88Ic/pGfPnrz//vvMmTOHAQMGkJeXJ9NA22w2GhoaaG9vJyMj4ztJbNCNhIzw+SAZjUb69OlDSkrKaXolh8NBbm4uVqsVr9dLZmYmBQUFNDY2otFo+MEPfsCIESNwuVxkZWXRp08fTp48SVpaGj/60Y9ISkoiJSWFxMREMjMzOXnyJBkZGUyfPp3U1FSSkpLo1asXeXl5tLS0EAqFGDZsGOnp6fKg3tzcTFZWFr1796ahoQGj0cgVV1xBUlIScXFx5ObmSqGHILadO3fS1NREcnIyJpOJ6dOnM3jwYKlYFv1TnlWUf5EKfZVKRc+ePWWCjfz8fGbOnElSUhIdHR1otVoKCwux2+0MGzZMniMvu+wyqqqqGDRoEKmpqeTn58td0GazceWVV5KSkoLVaiUxMRGn00lqaio5OTnExsbSp08fHA4HwWCQ/Px8TCYTsbGxjBkzRu60opwePXoAp/KXt7W1kZeXx2233SYDL8XGxlJfX09RURFTpkzB4XCQkJBAYmKi9EfMycmRZ3an00lOTg65ubmsWbOGzMxM+vfvz+bNmzlw4AA/+MEPOulfvylQqS5iQsZwOCwVsF1ZbFgsFrxer2SvRExJMcEDgUAnqaHImS0mnFarlfmslb95PB70ej1ut1sexJXnBMFKKXMRCKdYnU7X6awnTNLEGSs2NpYFCxbgdruZM2eO9K1TEtvZHPKV+jUhLBLSUr/fj06nw2g0yn62trYSExNDXFwca9askUkV09LS8Pl82Gw24NQuKsYPTrHdguBFUkYhEBH322w2Wa+YKMpyRCBdce5SpltWBuRVvhu1+lTiSfHORNJMwQFoNBoWLFhAfX09c+fO5YEHHiAvL4+77roLp9PZZYqwSxVicbjgDqiicpVKJRMQKkXtSl5dGTRI+KiJSaKUJgLyuihbmdQ+8jeRMF5MMOWaIQQIom1C4CESFiolY8r2if8iHINgnYQaQln/2YwRIFlA5ViIyd7a2gqccrRdvXo1a9asITY2lpaWFiZOnEiPHj0k4YiIY8r2h8PhTuMjQsMrx1fkAxf96KqcrhJOis+iPHG/OMsqE0+KvorvIiLA1KlTmTt3Lr///e8JBoN8//vflz6J3xRiO5+4IPnhIonxiz6fzW9nuvdM93xRu8Ukczqd8uDflYj/XPutLCfymtPppK6uDr/fT2xsLGlpaZ0in0W25Yv62lV7v2xszub6mfoVKYTS6XTU1tbidDpxOBwyTmjk8eRSx0Xd4c4WkeeaL/t8Nr+d6d4ve6arNgpCEyzmuU6GL+pD5LVwOExsbCxJSUnAKdG62NnO1I6z7euX3X+217/Kb8qwGUI18k06t51vfCWCUyo/v2BD/MZDSD8FLnRfhcRX2Z6L0Y7zCUF0ol/f1KjX52v+d0lwym0y8rwD3xw2oDu42H272PV/HThbbuNShfJc2110SXBdsQxd8fNRRPFdgXJ3O5cF40tZSsFmlZeXd7uSKM4PvotSvUsNSrPE7uALWUoRQsFms50XIUIU3YdQf1gslovdlO8shNTV7/d3yhl/NvhCtQCcSht1JtF0FF8/xLgXFxcTDAbJycmRBsTRBfDCQ4y5zWbr1vh/KcFFcWlA2K0KB9Eovpn4UoKL0uOlgW+DiuDbgq9daBLFxcd31br+24YLYmkSxbkjSmjfDvw/k+vGmKwjgz4AAAAASUVORK5CYII=;" vertex="1" parent="1">
                    <mxGeometry x="760" y="-60" width="220" height="92" as="geometry"/>
                </mxCell>
                <mxCell id="72" style="edgeStyle=none;html=1;dashed=1;endArrow=circle;endFill=0;endSize=6;" edge="1" parent="1" source="71" target="22">
                    <mxGeometry relative="1" as="geometry"/>
                </mxCell>
                <mxCell id="71" value="" style="shape=image;verticalLabelPosition=bottom;labelBackgroundColor=default;verticalAlign=top;aspect=fixed;imageAspect=0;image=data:image/png,iVBORw0KGgoAAAANSUhEUgAAALsAAAENCAYAAABXdBS2AAAABHNCSVQICAgIfAhkiAAAABl0RVh0U29mdHdhcmUAZ25vbWUtc2NyZWVuc2hvdO8Dvz4AAAAmdEVYdENyZWF0aW9uIFRpbWUAbWnpIDMwIG9jdCAyMDI0IDE2OjU2OjA49hz07gAAIABJREFUeJzsvXd8VFX+//+c3mfSGySQRpAmSBWQiApiw92PBcuqy7rW77J2lxX4CCu6CggurLqIjf2oKOqioqKgIE0FkSI9JCQkpPfMZDJ9fn/kd453hgDBlV3FvB+PPCYz995zzzn3fd/nXV7n/VaFw+EwXdRFvwDS/rc78HMkpXxQqVT/xZ500alQF7P/AOpi8J8nqf/bHfi5Uk1NDUVFRYRCof92V7qok3SMZPd6vahUKrpU+RNTWVkZMTEx1NXV4XA4CIfDXRL/NJHgR4PB8O+1E24nVCoVlZWVlJeX4/V6u5i9E9QlFP4zpFKp0Ov1pKWl0a1btx8sWCLUmJaWln/77fklURej/2coHA7j9/spLy+nsrLyBwuZCDVGo9EQCARwOBwkJSURDAa7luYTUJfqcnopHA6j0WgoKyujtbUVgKNHj6JSqUhJSTnl+T9GZw+Hw6jVagwGA36/v+thdtF/jQSzq9VqQqEQKpUKv99PWVkZ4XCY1NTUU2ovgtnFmxIOhwkGg/IGXdRF/w1S8mMoFCI+Ph6/309DQwNHjx4lHA6TlpbW6fYimF0wtkqlkn/iu7ihWq2W30/0IkR3VFwnXHVqtbrDNoLBYKfv8Z8k5XiAiP6Fw+GI338qfT4TSMynmOu0tDQCgQBOp5Py8nKATjP8Sf3s4kYajQa73X5cJj3ZdTqdjlAohMlkwmw2H8Mo4s9ms6HT6X6yjB4dPRVqn9VqxWKxyPOjz+2iH05i/kOhkJTmdrsdj8dDeXm5ZPqTzfdJmT0UCqHRaGhsbGTZsmW4XC7UajXBYFA2Hv1ghTTXaDQ0NTXxj3/8g8OHD2OxWPjyyy/5/PPP0ev1UsqL61UqFe+88w6HDx+WL4doS3kPJTOJY8p7RzNbR+cqP6Pbj/5dMLVWq8VsNkcc1+l0NDQ08Morr/Dee+9FzN1P5WX9uZNSqGg0GjQaDenp6cTFxeH3+6moqJBemhPRSZldSOf6+npef/11nE4nRqMRjUYTwaTiRsrvGo2G1tZWvv76a2pqarBYLGzevJnPPvsMvV4PIBlKq9ViMBhYvnx5BLMD6PV6tFptxP0E6fX6DtULjUYTcY1Go8FgMEgJIT6FMa5Wfz8V4rj4PRgMyjnYsGGDVLWgXR1bunQpxcXFfPTRR3zyySdYLJZjXsIu+mEknp9araatrY2GhgYaGhpoamqSfCiM1vLy8hOuqCfFxiiZJyYmBpPJRE1NDSqViri4OLxerzRmtVotKpVKfgdITU1l3rx56HQ6fD4fFosFv98PtDOVYKja2lr0ej0Oh0NKfZ1Oh0ajobq6Gp1OR0JCAn6/n0AgIK30mpoaHA6HfPmCwSAmk4mWlhb8fj92ux2j0UhzczMtLS0kJSWh1+vx+XwYDAZaWlpobm4mJiZG9s1oNOL1eikvL5e/q1Qqvv32W95991369OlDOBzGYrGwa9cuvvvuO1566SU2btzIsmXLuOCCCzAajV2u23+TlOoLQENDA3V1dRGSXqnTV1dXExcXh8lk6lAN7hQQTFwUCoV49tlnqa+vx+PxMGHCBG666SZWrFjBzp07eeCBB9BqtXz11Vd8/vnnPPjgg7S2tvK3v/2Nq6++muTkZPkihEIh9Ho9lZWVvPTSS9TU1KDT6aiqqkKtVqPT6SgtLeUf//gH1dXV+P1+zj//fCZPnkxBQQEffvghbreb0tJSpk+fTmZmJsFgkHfeeYfy8nIKCgro06cPf/rTn3jttddYs2YNAHa7nbvvvpvevXuzdetWlixZglarJRAIcNNNNzF27Fg2bdrEK6+8QiAQIBgMMnnyZBwOB++88w6BQIDp06czePBg7r33XtasWcPZZ5+N1Wpl8ODB/N///R+7du1izJgx0jfcRT+MBBNbrVa5unZE4XAYr9dLKBQiGAwet71OA8HUajWtra3odDoefvhhzj//fJYuXUppaSlut1s6+9VqNS6Xi9LSUinli4uL8Xg8EUaeOLZo0SJcLhf33HMPt912m1QBVCoVS5YswWAwMHv2bG6//XZWr17NwYMH0el0bNiwgYyMDB544AHpktJqtZSVlbF7925uvvlmrrvuOjZv3swHH3zArbfeyuzZs7Farbz55psYjUbeffdd0tLSmD17NjfffDOZmZlUVlby/PPPM2rUKJ588knOP/98/vnPf5KcnEx+fj5Go1G+FE1NTZSWlkpJHxMTQ0ZGBvv27evyyvwIJKR6YmIiOTk5ZGZmRvz17NlT/q/0xR+POs3s4XAYvV7PTTfdRF5eHv/zP/9DcnIy+/fvx2KxSA+KUj8WHTYajRFeHKG+CD3rtttu4+yzz+bss8/GbDZLtebw4cOkpqZSUFCAz+fD7/dz9OhR1Go1cXFxXH/99Zxzzjly2RL69ciRI7n88svJyspi27Zt0nIvLCzEbrdTUlJCIBAgNTWVoqIiDh06xLnnnktWVhb79+/H5XIRGxvLnj170Ol0NDY2EgwG6d27NzqdjmHDhpGXl0dNTQ0+n4/k5GQCgQAqlYr09HSqqqq6GP1HICW/nOhP6Sw5EXUaz67UyZuamqTOGi2xhdHXkTdEyQAqlYrW1lY0Gg0Wi4WmpqaIF0LYAtXV1bS0tBAOhxk6dCg9e/bE6/VKg0VpyCrv19raSigUwu12EwgE2LVrF36/n1AoxIUXXojb7eb6669HpVIxd+5cUlNT+d///V/Z9oEDB+SSOHbsWCwWi1RLnE4ngFRzDAaDnB+h73cZpz896hSzKz0sJpOJ+Ph4jhw5Qm1tLYmJidTW1hIMBtFqtTgcDlwuVwRzK42IcDiMTqdDrVZjMpkIBAK43W4SEhKor6/H7/dHeEguu+wy8vPzJXTB7/ezdetW1Gq1NFCiVw74PmhlNBolIwcCAdRqNV6vF5fLRXJyMlOnTuWWW27h/vvvZ9WqVfTv3x+VSsWUKVOIj48nGAxKphYGp/Cpa7Va1Go1Pp9P3k8Yvl2S/d8nJf+c6JzOqownZXblUuJyudiyZQs1NTUsX74cm81Gv3792LVrF0ePHuWzzz7Dbrfz/vvvR/ip29raJKOo1WpKSkrYunUrSUlJxMXF8fLLLxMKhfjiiy+oqKigra2NpKQk+vbty7PPPitVhIMHDzJx4kQp1YU6tHz5cpqamrjzzjvxeDzyhWlra+O8887j0Ucf5bnnnmPIkCHs37+f5ORkRowYwfvvv4/D4ZD+2lAoRO/evTGbzcyePZtrr72W2tpaGhoauPrqq7FarVRWVrJp0ybi4uLIzs5Gp9NRWVkpjdzy8nIJQ+2inxZpZs6cORPa35CGhgZ8Ph9arRabzRaxC0cElrZu3Sr14P/3//4fDoeD+Ph4XC4Xq1evpqSkhIkTJ6LVaunbty8ajYaioiIGDhxIQkICWq2W7777jq1btzJ69GjOPvtstm7dytq1a4mNjWXYsGFYrVays7Pp1auXfIl2796NTqdjyJAh0i04cuRILBYLa9asoby8nIsuuojCwkLi4uLo378/brebbt26kZCQwJo1a9i2bRtlZWX069eP1NRUVq9ezZo1a9iyZQs5OTlMmjQJm81Gbm4u27Zt48svv+TAgQN069aNs846C4vFQnFxMRs2bKC5uZkLLriA3bt3U11dzZgxY2hqamL58uVMmDCB9PR0KfG76PSR0BgaGhpQq9XStSyORZwbbidUKhWFhYU4nU4MBgOpqalSogrjz2AwSBePxWLB6/VKKarX63G5XJhMJnQ6HcFgEJ/PJ4H3fr9f6rc+n49AIIBOp0OrbV9c3G43drudUCgkzxWBJqfTKUPybW1tANJvrxyUCE6Fw+GIvgufd2trq7yHz+fDaDTicrkIBoM4HA7pwzcYDGg0GpqbmzGbzej1etxut/Tle71eOc6vv/6aBQsW8Morr/DVV1+xfPlynn76aTkHXcx++kipdRQWFkoBa7FYfpifXdmg2+2W+pHL5QK+1409Hg8Gg4FAICCDRspjQoURBqAIHIkXwmAw4Ha7AeS5gkGFp8flcskBiDaVfRQ6c7QO19bWJnV78bIINUdIAXGO6COA0WiU4xH9AST8ORAIMHjwYHr16sW8efOorq5m4sSJ2O12nE7ncf3CXfTfoU4DwQAppZTRK6XxqkQ0Ko9FXyf0eeUx8T36bRT+U3Gt8nfRP9H28QyV6HuIPoi2lfdWju14CE1xvvjtjjvuIC0tjYsuuoiLLrqI1tZWeU0X/XTolCKonf3/ZN9Pdm707ye7Z2faPh2/C+9QUlISt99+O+FwOGJ16mL2nxZ1Wo2JBn1FA26Uv4vvShCP8vefKinHqvwezbjRYwsGgzidzgg3WEc6Y2fuG31PZRsdnaekzl4T/Zx+KdRpIJjQswOBAIFAAED6woWurJxocY1Wq5WGpKBTYYT/JImxiuCZSqUiEAgcE4YWsQKVSiVtBKVadarjE9cIcFsgEDgpM+t0uohjIpKoPCf6UwS/fqnbLTst2X0+HwcPHiQ5OZnY2FgASktLqa+vJzY2lpSUlAjYr0ajwePxUFNTQ0ZGhtSBox+AuMeJKPrBHe/Yv0siClpTUyODSQkJCej1+oj7ajQaKisrCQQCdOvWLQJ8pDwvejWI/k1JarUap9OJ0+kkOTn5uGqQStWOKaqpqZF98fl82Gw27Ha7DJyJc5UOhoKCAhlkE/bIL4npT2qgBoNBLBYL69evZ/LkyTz77LOYzWbWrVvHgw8+yCOPPMK0adOk90Ewu9Fo5PXXX+ftt99Gp9NRX18vJXxHWO9oaEFHUIOOfu9I9fghf2KsNpuN5cuXs3TpUonwVBqywWAQvV7P0qVLefrppyOOKduL3ihyovEJWPLWrVuZP39+hISOblOlaodZvPDCC7zyyiusWLGCL774gmeeeSbCEaC8RjyL++67j7Vr16LVan+RePuTSna1Wo3H46Ffv37cfffd5OXlodVq2bhxIz6fjzvvvJO0tDTMZrME5JhMJvbt28emTZuYP38+paWlPPHEEyxcuBCj0SgnWjC/RqNBr9fj8XjQ6/XHeHM8Ho98MAIVKUgcUxqQyuvFb9GeFfG7kjGVKltsbCzhcPs2QQFHED58r9fLb37zGwkh0Gq1Ensv7hMMBiN87SK2IFQ/0SexwUXcX6PRRPQ9erzC5anX64mJicFsNnPdddcxefJkNmzYwAUXXCAxR6J9t9vN9u3b+d3vfsekSZNk3OKXRp0GggmQk8Vi4cMPP+TIkSNYrVbq6+vp06ePDDKJc1etWsWgQYPQ6XQ8//zztLS08MILL5CdnY3X6yU+Pp7Ro0cTCASoqalh3bp1TJw4kQ0bNmCz2di+fTuNjY0MHTqU/Px8oP2l+PTTT/nmm2+AdoDWkCFDjtkiKIBjSleh0WhEpVLR1tYWIQFVKhUWi0UymcfjYfjw4Wi1WjweDyaTibfeeos9e/ZgsVgYMWIEY8aMoba2lqamJnJycigqKqKwsBC9Xs/mzZuJj4/niiuu4JtvvmHHjh1kZGTw61//mtjYWDZu3IhKpaKkpISioiLOOussxo8fj81mixiDmMfVq1ezdetWAPLz8xkxYgRGo5H8/HysVitqtZr4+Hjy8/P55JNPGDt27DEu4XC4PXVcbGzsj6r2/dyoUzq7wIn//e9/5ze/+Q0+n4/6+nocDgcrVqzAYrHQp08fiUJsbm7m0KFDXHXVVfLBCd3SaDRSVFTExx9/zODBg4mJieHdd99l06ZNXHfddaxZs4bDhw8zbtw44uPjWbRoEX6/n2uuuYZ//vOf/Otf/2LcuHE0Nzczf/58/vKXv5CXl4fH45Hq0pw5cyRTC134kksuweFwsGzZMhlFFX275557yMnJIRQK4fV6GTp0KKFQCKvVyqpVq1i+fDnXXnst1dXVVFdXYzQa+frrrzly5AgTJ06ksbGRv//972RmZjJ06FDWr1/P+vXryczMpH///rz77rsYDAbuvPNOduzYwaeffsoFF1xAdnY2y5cvp7a2loceekhKcLExfcWKFbz55pvSd79gwQJmzpxJv379GD16NIAMvA0ZMoQvv/ySqqoquaMrenWLFgri918Kddobo9VqiYuLQ61Wc8cdd1BcXExNTQ1PP/00aWlpuN1uuSHW6XTS3NxMWloaGRkZXHPNNcyZM4c//vGP2O12MjMz2bhxIwcOHODcc89l9+7dnHfeecTExBAOhxk9ejT3338/0A6n/eqrr7jsssv45JNPuPTSS7n22mtxuVwcOnSIHTt20K9fPwkMs9ls3HXXXRFLfygUIiYmBo1GQ48ePY5ZwpXQCCHdxU6qpqYmtFot+fn5ZGVl4XK5aGtrw2w2y7C0RqPBaDQyZcoUBg4ciMVi4c033+Thhx+me/fu1NfXU1RUJM/Ny8vjgQcewGazYbVa+de//iVVD6FG+Xw+Pv74YyZMmMD111+P2+2msLCQHTt2cPbZZ+NyuaSqolarSUlJkaC01NRUqSIK/Vy4RsUz/SUxuaBT3pYXDAaJi4vDYDAQDodJTk7GarVKFUalUkm8t8PhwOfzSZ3U6XQSCATo2bMnOTk5fPnll2RnZ1NRUcEtt9wi2+jWrRstLS3o9Xq6d+9OTU2N3K63efNmdu3aRTjcDkOwWq0RngW3281bb72Fx+ORunFrayv5+fnY7XY++OADrFZrhJE4efJkevToEeFGVKnaMfWjR49m27Zt3H333QwZMoTf/OY39OzZU0pJITFNJhMOhwO3241OpyMuLg6r1YrT6Yxwv/r9fvlytbS00K1bNwCZtUGZzSEcDvP111+zZ88ewuH2gJUYr+ijRqORTgShnysjxIFAQCJH+/TpI7M0/xKp03h2QdG+Z5/Pd4z3QEgoZRhepVJJ/LdGo+GCCy5gxYoVrF+/nvj4eHr+/5syALnfUKvVSqa32Wy0tbVx8803M3LkSFpaWjCZTOj1etra2iQORa/XM3r0aNkn0ceMjAz0ej3jx4+PcCUKI1TpS1f62OPj4/nLX/7Czp07Wbx4MUuXLmXWrFkRrkRhbApGFWMQnptoN6K4l16vlxtCRC4dsero9Xq8Xi/XX3+9RFQKUFq03aH87EgnFzGSX6JRqqQfXHlDTGb0BIbDYWk41dXVkZOTE7FhQiAIhw4dyscff8yyZcu4+uqrMRqNUs8UGyAOHTrExo0bueyyy0hMTCQtLY1NmzZx/vnnk5ycTElJCXFxcZjNZslsJpOJCy+88Jiwvgh69e7d+xiXmxJvL8YA7SpAVVUVGo2G888/nz179rB58+ZjoLvRxmB0JDVaWPh8Pim933//fXr16iVRl21tbfh8PmJjY0lPT2fTpk1ccMEFpKSkUFJSQmxsbMQ+XaFitrS0EAqFcDgcETu3tFott99+O/feey979uxhwoQJEoz3S6NTQj0K6K2QespIn9JX7XA4SEhIoLCwkBEjRpCcnIzD4eDPf/4z6enpcpP04MGDKSwsZMCAAVItMBqNrFy5kt27d1NZWclZZ53F5Zdfjsvl4re//S1z5szhjjvuwGq14vf7+dOf/oTNZpMuPqGfRpNSH4+maFenYFCDwcDnn3/OJ598QkJCAhUVFdxwww0S9ahcuaLnIhpcJubNaDTy+eef88ADD9DU1ITVamXy5Mm43W569OiB0+nk/vvv5+677+a2225j5syZ3HHHHdjtdrxeLw8//DB2u10GsgRDHz16FCBCHVO6N4VRLubil2ignhTPDt/72mtra7FarcTFxVFdXU0gECApKUmqLdC+RNvtdl544QUOHDjAnDlz8Pl8NDQ0cPjwYRISEujevTuJiYm89tprbNy4kblz5+L1ejEajUyfPp1u3boxfPhwTCYTubm5qFTtgCuR56WoqIhgMEjPnj2lUQs/3oNTttfa2kppaSlNTU10796dHj16EA6HaWpqIhAIkJiYiMfjoaGhgcTERHQ6HS6XC5fLRVJSEiqViubmZjweD9nZ2SxYsEBCgTUaDbm5uZhMJrlp5siRI1RXV5Obm0tiYiJNTU3HHa94KR0OB7Nnz0av1/Pggw9G+NGF3j5t2jQmTpzI+PHjpdH9cyelIP5R8OyiMaPRSFZWlgyjp6WlRagHSn1X5JRZu3Yt69atY+zYscTFxckwtc/nk2613/3ud9KnLQzMhIQEzj//fJnoSEgnn8+H1Wpl6NChABJr/mNLJ6U6Y7PZGDhwoGQaYWjGxcVFvITp6ely5bNardI4D4fDxMbGSleneKnPO+882tra8Hq9Ui0KBoNkZWXRq1cvfD6fNMA7Gq9geKPRyLZt29i9ezezZs2Sx5XwDLVajd/vp6qqSqowv0TJfkpqjGBI4amAjtGOPp+P9PR0rr32Wnbs2MH5558v1R6BmVm3bh0XXnghY8eOlQaX2AMaHx9PS0uLNDyVkc1gMBgBo43u549B0b5pscIpxyt+E3MjvBzKa4R0VW7Y7tmzJ263G6fTeQyIDNprWom2TjReQRqNhm+//ZZLL72UXr16Samu9BSZzWYGDRrEu+++C8CkSZMint8vhTq1Le9USRlIUrahlJgiw4ByZRD6p1LHPZNIeKrEy/Lvjk/Mm4APCD3+eEKguLhYunPPBCDYj67G/NAOCIZVShmlxPT7/R16MZQSM9qdpvw/+lNQR663E/X1RO13dpziuo7ajD4nmiGjPUOdNR6jBYSy3ePNT15eHuHw91sXo+fhVMb/c6Qf3f8UPVlKY6ojlSeaWZVtnOgeys/jHe9MXzs6tzPXR5/TUX+V/exoTEK6ijTMwuDsaO46oo5epmj7SdkXj8cjGb0j/3xHbZ5JdFpMcuVkCXyKEpcRzSjRD0Xo50qdV6neRN9DpVLJ0PmpLM/KByrC6p29XqmqifEJPHx0O9H9FOcajUbp2RHuQWHkirk7Xl+i56yj/6NXUmWKQuWLoVwhjrdx5Eyg0xZZEH7qQ4cO8de//pWWlpYID4E4J/q7UH28Xi9Tp07lvffeIzY2ltdee40VK1ZIBlH6sltaWnjqqac4cOCAhDEocwF2dD/l7zqdjueee47PPvsMg8EgX0ylO1X5YgjYhMlk4pNPPuGBBx6Q8ITHH3+c7777TvZDjEmn03H48GFmzZqF2+3GaDSyadMm7r33Xv785z/z0EMP8fDDD8vU3WJXkRInL+7bEVZe3Cf6mMiisHDhQkpKSmRWB+WL8NJLLzFt2jTWrl2LyWSKuOeZRKfN2SqMsdbWVgoKClCr1dhsNulqEw9C5H8R34WhpVar6d+/P2lpaYRCIY4ePYrNZovw6ev1eumjPnz4sNxAIqSmeLAi142AKogX0ePxSK9JcXExsbGxMvorcOPi3FAoJO0J0W4wGCQlJYWzzz5bSuFDhw7R0tIi76NStQeSRGTzwIEDaDQaysvLefbZZxk2bBj5+fn4fD6OHj2Kw+GgpaWFN954g2uuuYa0tDRaWlpk3h6BkRf5JIW/XKVSyW2TylyTer2effv28emnn5KTk8NZZ50FfB/8e/fddykoKGDcuHEsXbqUvn37kpycLNOHnEl02phduUxarVZqa2vZsWMHMTEx9OvXT4a4q6qq6NmzJ1qtlra2NioqKujevTsGg4GxY8diMpmkL1uJaTEYDFRUVFBUVCQDMkpGPnr0KAcOHMButzNgwACJKWloaMBoNLJnzx569eolff+iisOWLVs4evQoZ599tqwFW1hYiNVqJSEhgXA4TGlpKRqNhrS0NHJyckhKSoqoGaVkdK1WS0FBAbW1tbL6iFarpaKigkAgwG9/+1t69OhBc3Mzo0aNorW1lfXr17NhwwZycnJoamqSuJ6SkhIKCgpkxjO9Xk9NTQ3hcHtR3L1795KRkUFeXl5EipD169eTlZXF1q1bueyyy6RHqKWlhU8//ZTLL7+cSZMm8fnnn/PRRx9x9913HxM/ORPotIfRRF2lefPmER8fT0lJCSNHjuTBBx9k165d/O1vf+OZZ54hPj6eoqIi5s6dy//+7/+SkZHB/PnzGT16NJMnT45QLQwGA5999hmvvPIKGRkZeL1e6urq5I6n1atXs2TJEtLS0qipqSEnJ4cZM2bQ0tLC008/jc/nw+v1ctttt8nwusFgYOXKlWzdupVAIMCyZcuYOnUqgwYN4tlnn2XUqFFcd911+P1+li1bhs1m45FHHmH16tV88MEHcluccteTWq3mhRdeYNOmTWRlZVFZWYlGo8Hr9ZKbm4vRaGTBggXcddddEpZbWVnJmjVrUKvVrFixgoyMDB555BFWrlzJ0qVLycjIoLy8nAEDBjBr1iy2b9/OO++8Q0xMDDqdjuLiYi6//HJuvPFG1Go1lZWVfPfdd1x99dWsWLGCvXv3yiDVrl27cLlcMqXgqFGjWLNmTQR8+Exi9tO+TgnY6bXXXsuCBQuYMmUKa9eupaSk5ISl4wWzKD0Lwj9fV1fHK6+8wq9+9Svmzp3Lww8/TFxcHOFwO4z4n//8J7fccgsvvPACTz75JIcPH+bgwYNYLBZqa2u56KKLWLJkCYMGDZKBK5/PR2pqKrNnz2bevHnExMSwcuVKmUVA9KEz/RQrxbfffstnn33GQw89xJw5c7jzzjvx+XyEQiFiY2O57777qKio4I9//COvvvoqLpeL7Oxsbr31VsxmM/fffz9Tp06lqqqKZcuWMWXKFBYvXsysWbPYu3cvxcXFmM1m6urq+O1vf8szzzzDjTfeyEcffURdXR0Wi4Vt27ZhNpu56qqryM7OZv369dIoLSwsJDExUZYLys7OxuPxUFVVdUz2gjOBTqtkF16AxMREzjnnHDweD+eccw6xsbEcPXoUu90uz+3IHRntshM6aklJCWq1mvHjx0sPiNDHRUh8+/bt7Nu3j2AwiMfjobGxkfT0dHQ6HQMGDJAoS3GfYDDIsGHDZH2m4cOH88033xwTXu/IzRftqhP2yt69e8nLy+Pss8+WgR9xrdfrZeDAgSxYsIAdouNsAAAgAElEQVR169bx2muvcejQIR577DEpBHQ6HUajkfLycgKBAJs3b2br1q1yZWpubiYQCJCVlUVeXh5er5dhw4bx9ttvU1tbS3p6Ohs3biQ1NZXi4mKSkpJYv349NTU1cp9AfHy8hELEx8cDnLEZzU4rsysZQ2w4Vv6uPC8UCkkpGq0rRrvTvF6vzIEeveFCYEP69u2LzWbD7/czYsSIiI0LAoMfjXYUL4bJZDpmLMqo5/HqtCp91SKxqzAaxQsgzhEeJ61Wy9VXX03fvn2ZOnUq27dvJzExEfgeE+/3+9FoNAwYMEDaBqNGjSI7O5vi4mIA2ZaYS7PZTGFhIaWlpcTHxzNnzhzC4fYiDTt37iQrK0tCjQWJ/8+E6GpHdFq9MUpGEqmtv/jiC1paWkhPT8flcuH3+/H7/TgcDg4fPkxra6t8aEpmFGAwrVZLcnIyzc3NVFVVMXToUI4cOSJTFicmJhIOh+nevTsXXnghgMzUW11dLRMgCaiCSqWSbkKj0UhcXBwul4vt27dLQ1mn09HU1ITdbqeuro7i4mIGDhwYoZuLfobDYcxmMxqNhsTERLZv3y6lpmBModvrdDq5wyguLk5mOxbeILPZjNlsJjU1Fb/fT1ZWFsOHDwegubkZk8kkN7rExMRgtVpZvXo14XCYHj168Pbbb5OSksLMmTPxer1YLBaee+45NmzYwK9+9SvsdntEn8QuJ6Xb9Eyi0+6N0Wq1VFdX8/e//52YmBjWr1/PuHHjSEtLo76+HovFwvz588nJyWHfvn2EQiG5jAporEqlwmazsWHDBmJjY7ngggvIy8vjr3/9K6NGjaKwsJC2tjbq6+sZOXIkY8eO5YknnuCbb74hGAzS2NjIfffdh1qtprGxUQapFixYgEaj4dFHH0Wj0fDRRx/hdDo5cOAAdXV13HXXXVLdWL58uXQZNjU1ybiB1+vF6XRKe0Kv1/PGG2/gcrkYNWoU7733HjNnzpT1nZSek2XLltG7d2/0ej1bt24lLS2NAQMGyA0czz//PBkZGVx11VWMGTOGGTNmMH78eFpbW3G73UybNg2DwUBpaSnPPfccAJ999hk33HADACtXruTaa68lMTGR5uZmbDYbF154IdOnT2ffvn3k5eWxceNGWltbiYmJoby8XAqTMzFr2EmLEfw7AxY79FNTU6V0nTBhAldeeSWBQACz2UxOTo6sq3rDDTfQu3dvkpKSsFqt6PV6cnNziYuLIyUlBY/Hg8fjYeDAgQwfPhy/309tbS0XX3wxI0eOJD4+nri4OPr27UtCQoLcZTRixAiZlcxms5GXl4fZbKaxsVG6D8WG5cbGRnr27Mmtt95Keno6bW1t5OTkyDKWQ4cO5de//jU2m43u3bsTDodJTU2VFdvS09Opr6/HaDRy7rnn0qdPHxoaGvD7/UyaNIm8vDwSExMxm820tbXR0tKC1+tl8ODB3HLLLZjNZgwGA/Hx8TQ0NBATE0NeXp4s0iCyG4iCZwcOHKCgoICkpCQCgQBXXnkll1xyCfX19RgMBvLz86X+7ff7SUhIwGKxkJKSQmpqKqtWraJXr17k5uby1ltvYTabmTBhQsQe3p8yCaH6oxUj+KEkVBGz2SzbEZJbkMFgkAam0DuFfi92I4nkSdG51MW+TWW0VBiUFotFDli5WlgsFtxut4yAivYMBoMMHgkPktIeUOrxogxla2ur9P+LTeXK6t+tra0YjUZpiwibxev1otFoMJvNUoKKAJyACoh21Gq1bFtsthbuS71ezzvvvMOGDRuYP38+Op2OQCAgVUFR9Cw6B6Qo6qDT6Xj88cdlxogpU6bw4IMPMnDgQFl84adMYjz/NdRjRx1paWmJOKaUGGKbnDhfKVGEqiD0ayVmHNr11ugBCSkmrlXq1aFQiObmZtm+wImLnVjiJVJeA0SkolD2UzCd+F+lUsliB9HtQiTuJxQK0djYGGHUKnV/cY34XTlepUEvbBBldgKBghQVCJX9DofDNDc3y+833ngj8+bNY/r06QwbNoyBAwfK/QVnWlDptEt2OD5c90THoj0wHR07Ufsnavdk7XW2zyfqY2f7qaSO+na8c6H9ZXK5XLS2tkoPTnR7HZHSjarX6yktLaWuro5evXphNpsjNp78lOlHl+wnmvzOvAjHe1DHcy0eL3AT3daJ2oz+PN7/x3MddqZfx/t+ov6frM1T6Rsgk0I5HI6I3VQnI+U9RJqRrKwsWXv2TJTqcApqjHBFCTXiZAyvfEmUSUXhh/tvlW2Kv5+DBDodpIwNKLOZdZZJhbAQKqIyI8GZyOhwCunvDAYDJpMJj8dzjO58ouuEQSR05I7UlM6SUrKbzWZ0Op2sYH0mPpwTkVI6n2y1ONH1cGzunzN1Lk/K7KFQe2HdvXv3smXLFoYNG8ZZZ53VoTRRqhhKffXjjz/G5/MxduzYDvHU0apOR2F45f9qtVqmhbvwwgvp3r37GQlJ7aIfl07KHYLx/H4/27dv59lnn6W5uVlGOaNVC4FJF9eGQiHeeust/vnPf8oVQQRgBNhI2YYyVVt0oiFxXXl5OXPnzpX5VLqoizpDJ2V24XMePnw4M2bMwOfzySQ70ZAAk8mE1+ulpqZGIv8A7HY7DocDlUolYbh1dXU0NjbKJP8CC+7z+aipqZH5VaJfKI1GQ3V1NbGxsTz22GNkZWV1SfUu6hR1yhsjtnaJYMXxXGT/+te/WL16NU6nk6SkJG666SYGDBgg86YIv/MLL7zAzp078fv9pKSkcNddd9GrVy9WrlzJJ598Qn19PXFxcVx33XWMGjUqIseJuK9Op8PpdMqA1ZlqVHXRj0edLvqrDLAoGV5I8M2bN/P888/LqhBHjhzh1VdflXnHg8GgxHh//PHHJCYm8utf/5qYmBgcDgc7duzgueeew+fzMW7cOBobG3nxxRdpbGw8Zue9cmPBiVx+XdRFSurU2i8c92azGa/XS0VFRYQLMhQKsW3bNjQaDaNGjZJVJY4cOUJLS4vcJyleGsH8GRkZPPjgg2RkZPD1119LOO748ePJzs6moaGBiooKCakF5H5RIGI/ahd10cmo08wukugPGDCAefPmUVxcLKGgouit0Wjkk08+4YknnqCuro7U1FTJkBqNhra2NgYNGsT48eM5ePAg06dPZ9asWVRUVMitcV999RUzZsygvLyctLS0CLipyWTi22+/5aWXXmL06NFYrdZTCqZ00S+bOl2MQNQmKikp4eKLL5YwUEDmPGlra+Omm25i9OjRsoiXwFxDe24Wq9XKlClT+J//+R9effVVvvjiC/bs2UN8fDxut5uJEydyySWXyOstFotM/Onz+ejZsyejR4+msLBQAqq6pHsXdYY6zew6nY6jR4/icrm45JJLJKIO2lWLQYMGsXr1at5++23Ky8vZv38/6enp/P73v5cbJ/72t7+Rm5vLtm3bGDBgAG63G5WqPQXEwIED0ev1vPfeezQ1NVFaWorRaOQPf/hDRLQwMTGR8ePHs3jxYjwejyxJ2UVddDLqtJ9dqBIGgyGitIzwsIwePZpbb70Vj8fDp59+Kt2DarWa0aNHk5KSQmVlpUTzrV69mpqaGm644Qb69u1L7969ufPOO9HpdKxevZri4uKIXOTwvToFyLQaJ8LKdFEXKanT+dl1Op3Ej4vfxad4Ia677jomTpyI2+0mNjZWpqeeNGkSl1xyiUyUJKC2ypRvfr+fX/3qV1xyySU4nU7sdrtMZKREt4lPgU0XEr/Lz95FJ6OTcohwNVZUVLBmzRq50UGZIk0wvEhLoawPpFK1b10zm80YjUY8Hg9+vx+bzSaxNgIoJqS+w+EgHA5LLE20X99sNlNVVSVznJyJO+G76MenTqkxBoOBgwcPsmXLFq644goSExNl1DIasyK8M8rvIvQvJDIg8xJGA5LE9UrfvpKRfT4fWVlZXHjhhXz66aeUl5dHuCa7qIuOR52qqSRUB+Fd+W+lRlO+VALxKLL9dkVQf3n0o2/eUEZQVSpVRKmZzuLZo1GMJ2LKzqAfRckbZQrm6HueCqa7I3Tlya4/3viiwWvRn9Fjil6RfgxMefT9TtS+8pxfPJ79hzKt8iUR5WY6M4nK4yKjbzAYlFFYJXZdmcxH7Ls8lYwIShiySD7U2fI2SmCaSJ8XDodln6OLCHc0F9C+4VxZJFlkKRP9+iHMp7xGWexX2X70PKtUkcWcz0SG75RkV35G/348EpPl8Xhobm4mPj4+IgAUDSLr6PuRI0ckYrK+vh6VSkVMTMwxDyQYDFJTU4PD4ZAR147GcTy9XqVSUV1djV6vP6ZeqBhLR9/VajUtLS20tLSQlpYGQEVFhTS+o5nV6/XS2NhIYmKiZPzS0lKZ8DQlJYWEhIQI1UzJdB1J6RONKRAIUFlZKdPkxcXFkZaWFlHrSq1Wc/ToURnDEPnpz0Tv1mkbkQCIHTx4kFmzZnVYjACOfYAiVYTH42HGjBm89957xMTE8Morr/D2229HwH6FFHY6ncyePZt9+/Ydk0w/einv6HedTsfChQv59NNPOyxGEN3HcDhMIBCQxQimTp0qd+Q/+uij7Ny5M6KfgUAAg8FAYWEh06ZNw+12o9Vqefnll7n//vtZunQpL7zwAo8++ij19fVoNBqcTqdEe0b3+WRjEhtuiouLmTp1Kv/4xz949dVXefjhh3nqqadwuVyoVO2Z0Hbu3MnChQt54403eOmllyLiF2ea0X9aM4Ippb9I5Sb2TIpkTDqdTibPV6vVGI1GiZP505/+RGxsrGQk0a4412q1ynQW0chIUfJcJO0U54gqfULSCgknVBCLxSJTyrW1tUmjXJS2BOTq0dbWxtixY2Wi1GjVJRQKyYIJ4k8pBFatWsU999zD8OHDJY5fpNmeM2cODz/8MElJSTQ0NKDVaiX0QjkmnU4n88uIeRH9FnsE7r//fjIzM9m1axdPPPEEmzdv5sorr8TlcvH666+Tn5/PqFGj+MMf/kB+fj6DBg36WeSNOVX6j5Q51mg0rF27lkOHDuFwOLjkkkvIyMjgyJEjbN26lYsvvhiTyURdXR2bN28mPz8fh8NBdXW11Inh2LwrH3/8MQcPHiQcDsskSILJ3nvvPfbu3YvFYuHiiy8mNzeXhoYGdu3ahVqt5quvvuLSSy+VpeS1Wi1VVVU899xzVFRUMGLECEaOHCnT4nXv3p1+/foRDAZZv349BoOB0aNH43a7KS8vJzc3V/ZR9FPkiFyzZg21tbW4XC4pOUVypG7dupGQkEB9fT3Z2dnU19ezfPlyqqqqeOutt8jIyOCKK67A6/WycuVKCgoKcDgcTJgwgdzcXHbu3EljYyNut5tvv/2WjIwMxo8fT1pampwrm82G3W5n0KBB2O12nE4nJpOJDRs24HQ6GTt2LElJSQwePJiPP/5Y5m8/0/T206qYiQdeU1PD6tWrSUlJYfv27cydO5dgMEhtbS1vvfWWLG5VX1/PO++8g9PpRKvV8s4778j6REKPhvaX58UXX2Tp0qXExMREJOXUarUsXbqUt99+m9TUVKqqqnjqqadwOp34/X5efvll3njjDVmpQ5BOp+Ozzz6jrq4Os9nM/Pnz2bhxI3a7nQ8++IC9e/ei1+vRaDR88cUXfPXVV1gsFvbt28ebb74ZweRCFWttbWX27Nls2rRJln2H9lhB7969ycnJYfr06axYsQL4Hg4hVjKXyyXHtXjxYj788EO6d+9OUVERc+bMIRAIUFZWxhNPPMGmTZvo0aMHa9asYdGiRRH2zOHDh9m1axeLFi0iOTmZsWPH4vP52LFjBzk5OTgcDoLBIEOGDKG4uJj6+vozMnZx2iW7YPh77rmHIUOGkJ+fz7333kthYSEmk0mmqROeDVHTKBxuT/cmVAalqlFYWMgXX3zB9OnTGTNmDBUVFezfv59wOExdXR3r1q1jypQpnHfeeZSVlTFt2jT2798v6wn9/ve/56KLLqKhoUFu/xP4nmnTpqFSqWhtbeWLL77gyiuvxGKxRLg5TSaT1Mn1ej02m+0Yw1tsaGloaGDhwoVkZGSwbds2Zs+eTTjcnvD1oYce4o033uD5559n5cqV3HHHHQwZMoRJkyZRVFTE73//e3Jzc9m1axdfffUVU6dOZfDgwQwfPpxHH32UwsJCzGYz8fHx3HffffTs2ZO+ffvy2GOPUVlZiV6vx+Px8PrrrxMKhSguLuaiiy6SqlpxcTGDBw9Go9Hg9/tJT08nFApRW1tLdna2xCGdKXTaixEEAgFiYmKIjY2lvr6ehIQEYmNjqa2tJS4uLgKxKKSiYG7l/+K4yKRrs9nIzMyksbERl8slYQ11dXWyRMv7778PINPECR3eZrPR3Nws80KKtnv06EFrays6nY7s7Gw2b94spbFYWUQflSvN8bw3paWlZGVlYbVaaW5ulihPoXPb7XbuvfdefvWrX7F48WKefPJJFi1aJKtzOJ1O3G43tbW1aDQali1bxrJlywiHv0+L7fP5SEpKwmg00tDQQEpKCiaTiaamJmmE3n333XTv3p2CggLmzZuH3W7nD3/4A62trTgcDtTq9tKW4qUVK8uZpMLAf6AYgXJpF8ZoW1tbROJR+D4q2pFvOVpqKo1RjUYjCxPA9/VMf/e735GSkoLX68VkMmG1WuUGb2HkmUymY1yYKlX7/laXyxWRAUG0L1QZ5W/RJF4gwdTCzajcsSX8+i6Xi8zMTKZPn87tt9/Od999R2ZmZoQPX+SRvOuuu7DZbNK7k5SUxN69e+VciPn1+/1YrVZZtc/hcGC327ngggvYsmULBw8ejMj8Ff28jheQ+rnTaa2DKqSzsqTihx9+SCgUIjMzUy6z5eXl6PV6Pv/8c/mAoklUxVCpVHTv3h2n08mWLVuwWCzs2LGDiooKAFJTU+WOprS0NFJTU3E6nbIdwaAajYaDBw9y8OBB6XcWBQCKiopYt24dAwYMkBtODh06hE6n49ChQ3z77bfH+PMFg4h2VCoVmZmZFBQUUFJSgk6nY/369dLTU19fT2lpqQxC7d27F4/HQ3x8PCqVSuZoF+qFWq1m586dpKenk5SUJMtFirkRkvj9998nNjaWtLQ02Q9hQ+zcuZMtW7bInI6iHpPok0j6KjxZXZK9kyQkpd1ux+fzMWPGDIxGI83Nzdx+++3Y7Xa0Wi19+vThr3/9K4mJiSQkJMiqGunp6RG4+aysLJYtW8YDDzzAH/7wByZOnMjixYv54IMPsFgspKWlUVtbS0xMDDfffDOLFy+Wyf8tFgszZsyQ7kbhpXjxxRfR6XTMmzePlJQUPvjgA3bu3EldXR15eXnSPTdu3DgWLFgg8fa9evWScQPhShW+7R49erB48WIOHTrE5MmTpW0RHx+PwWAgLi4Ot9tNQUEBf/vb30hOTkan01FVVcWECRPo3bs3ra2txMbGMnv2bLp168ZDDz3EzTffzAsvvMDGjRvx+XzEx8cze/ZsDAYDR44c4ZFHHiEYDNLS0sI999wj6zI1NTXx+OOPo9PpaGhooF+/flx11VV4PB5yc3Nl7h2dTieLuokX5Uyj05bFVxmQqa+vp7y8nHA4TGZmJklJSTI/eGtrK3v27EGv19O/f38aGxul4VpRUYHFYiE2Nhav18vevXsJBoOyrunBgwepra2lf//+cvUQBbGqqqooKirCYDCQlZWF3W6XEcXExEQsFgtFRUWo1WoyMzNxOp1UVFTQ2NhIQkICWVlZ0ubQarUUFRVRUVFBr169pP2RlpZGc3MzLS0tpKSkyGDQnj17iI2NpW/fvrS1tbF3715CoRD9+vWjqakJm82GWq2mrKyM6upqWcSgZ8+eUu2pqKjg8OHDJCQkkJmZidlspqysjJKSEsxmMz169KBbt26sWLGCTz75hEmTJqFWq8nNzSUhIUGuCmVlZTJQlZycTI8ePQgGg+j1er777jvmzp3LU089RXZ2Ng899BDp6encfffdcuX4KUt3pfbQGSDYaU9ZLXRgoXf6/X65p1Spc4fDYTwej9S5xQMRapCo9QPIDR1Go1HuTRWkrEotdGRR3EBgRfx+v5TE4XBYFtISAScBNIPIXJfCayH88uI68b9yPKFQSOL7hU0hDGJhlCtxK6JqtSBhLygrdIsxibmyWq0sX76ctWvXsnDhQrRarazaLQxhgXsRq5BY2cRzmTZtGj169ODcc89l3rx5PPXUU6SkpMhn9FOmU2X2/0gBMeVDhEigUjAYlHtZVSpVRDZZZQLVUCgkiweIQUQn+VdGbb1eb0RyJXGOErUpGFowoDJTQXQEWJwrjikZV5n3Ujke8eIo+60UIMrCBdH3FJl1lb8rxyTgEmIVEv545fnihYu+h+i3SqVi8uTJvPbaa6xatYprrrlGFnY7E2HTp1Wyd9HpJWF7dOSmPdl1goTHKBgMRgTvfg7P/Scp2QVFuxQ7e21H/0d/nuo9xH1O1P6p9rGjNo/Xz+j7dvTbifqgfNDi3OPNWUck2laW3FS2daZJdTiNrkflREUz44noeIzRURs/9B7K86KZtLPXR5+jNMg700+lND4ZpLcz/m5lu8rrO/rr6FphR3TU5zOFTqtkByReRbkp4UQTKRhdXBcOt4OmBIBKuVVQ2Z6oJH0qy7DywQtjOPqhn+xaUelP6X6M7kdHcyHQjyqVSno+bDabLPUijN3j9eV4TKkckzDglccEY4t5VGZsE5tOou9xptBpZXaj0cj+/ft5//33ue2227DZbMeUUe8oaidgu48++ijDhg3j+uuvZ8mSJZjNZq666qpjKsk5nU5eeuklLr30Uvr16xdRgQ+OX/BAHNPpdCxevJjs7GzGjRsnvSjieHQSVcEwVquVDz/8kC+++ELGEZ588kkuvvhizjnnnAiogcCzv/XWW0yZMoWYmBi2bNnC8uXL5XhiYmKYMmUKycnJMh+P6IOyzycak5hPjUbDokWLOHDggIQfi4S0Y8aM4fLLLwfg22+/ZcWKFSQmJnLrrbd2bd74ISSY1ul0snfvXgC5g0cpvYVbTnxXusqysrJISEgAoKSkhLKysgiogIhuiuwHIvoqHqzFYjnmfgLtaLFYIsrGHzp0iJqaGmw2myyxLsYhIALivsItGAwGiYuLIzs7WzLH3r17ZU4cwYh6vV6mF/nuu+/QaDRUVlaycOFCkpOTueWWW7juuuvo378/NpsNp9PJkiVLcDqdWK1WeV+Bt1eOScAJxFyI1SIcDjNs2DAuv/xyxo0bxxVXXMHQoUPZvXu3XAmbmpp4+eWXGTRoECUlJbz77rsyN1BnVKefG532cu5ieW5sbGTv3r3ExMTQu3dvNBoNLpeL2tpaunfvLn3E1dXVpKSkYDAYuOyyy2QGMqPRGBGiNxqNVFdX880338gCuILBDAYD1dXVFBQUYLPZ6Nu3r2y/qakJo9HIvn37yM7OJjk5Wa5COp2O7du3U15eTv/+/SVQ7ciRI5jNZuLi4giHw5SXl8sgTZ8+fUhPT5c+cQHQUvqyDx8+TH19PVVVVVitVrRaLUePHsXn83H77beTkZEhX1S3282XX37J559/TnZ2Ni6Xi9TUVAwGA0ePHqWwsJDY2FjOOusstFqt3K7o9/vZt28f6enp5OTkEAgEJB5fjG/WrFmMGDGCCRMmEAwG2bBhA+FwmJtvvpn4+HheffVVrrjiChmA61JjTpHUajXNzc3MnTsXu91OWVkZY8aM4d5772X37t0sXLiQ+fPnExcXx+HDh5k3bx4zZswgPT2defPmMWrUKG655ZaIrXIGg4F169bx0ksvkZqais/nk8hAvV7P2rVr+cc//kFSUhJ1dXWcddZZ/PnPf6a5uZmnn34ar9eLy+XijjvukLAEg8HAypUr+fLLL/H7/bz22mtMnTqVAQMGsGjRIkaOHMmkSZPw+Xy8/vrr2Gw2pk6dypo1a1i5ciXz58+XfnXB6Gq1mpdffpl169bRo0cPWV7e5/ORnZ2NwWBg0aJF3HnnnSQmJsp04B999BFqtZrly5eTkZHB9OnT+fjjj3n55ZdJS0ujsrKSIUOGMGPGDFavXs2KFSuw2WyoVCrKysq48soruf7663E6nYRCIex2O//3f//Hli1beOaZZwiH24F5mzZtYvTo0fh8PgYOHEg4HGbfvn2MGTPmjIQLnHbFTKvV4nK5uPLKK1mwYAF33XUXq1ev5siRIxIEBd+vBB35i5X6qcB4vPjii1xyySXMnTuXhx56iNjYWMLhMC6Xi1dffZUbb7yRJUuW8MQTT1BQUEBBQQEWi4XKykrGjBnDkiVLGDRokNTPfT4fCQkJPPbYY8ydOxez2cwHH3wgJXZHtkV0H8WnMD537NjBqlWruPfee5kzZw533nmnxPvEx8czZcoUioqKmDJlCm+88QZtbW1kZWXxu9/9DrPZzL333stDDz1EVVUVr732GnfeeSdLlixh5syZ7Ny5k+LiYkwmExUVFdx4440888wzXHvttbz//vvU19dLVa64uJhly5Zx++230717d0KhEPX19TQ1NZGTkyPhvRkZGRQUFJyR+jr8B/Dsfr+fpKQkRowYQSAQYNiwYcTGxlJWVobdbj9mqVQyVLQRJvT04uJiVCoVl112mdy3KnTXqqoq2tra2LNnD4cPHyYQCNDW1kZ9fT3du3dHr9dzzjnnYLFYcLlcEZHcc889l7i4ODQaDeeeey7btm2Te1cFdeRH78hQ1Gg07Nmzh169ejFkyBAATCaTvNbr9TJs2DDy8vL47LPPePPNNzl48CAzZ87EbDYD7aqazWZjz549+Hw+vv32W3bv3i1LyDc1NREMBsnJyaFv374Eg0FGjhzJihUrqK6uJj4+nkAgwKJFizjnnHMYN26c3JLX2NgIIAsGazQaEhMTqaurO6mP/udKpx3PDu0P1+PxRGBYoplDIO86CmhE+6k9Hk8E3gSQHh4BN8jJycFisRAIBBgwYAB9+vSR8AMlVkZ5P+HuaiIAACAASURBVAEjNplMHeaPFNcocfdKivbWeL1e6YpUvhiivyJv5g033MCAAQN45JFH2L59uzTKBVxYvHC5ublypTnnnHPIysqSVUg6ylVvs9l49tlnqaqq4s9//jNtbW1yJRWrlbhGGO8CRnCm6evwH5DsYiJjYmJISEhg06ZNEsLb2toqd+07HA6OHDki00yI65TqjfA6JCUl0dzcTE1NDYMHD6asrExuzEhISCAUCpGdnc35558PILHhYgO3cM0J5hWGr8lkkhDcnTt30q1bNwm+am5uxm6309DQwJEjR+jfv3+Ebq5Ub4SRmpCQwI4dOwiFQsTHx1NWVgZ8n9PSaDRiMpmksWs0GiXmxu/3Y7FYsFgsErrRt29fBg8eDCA3bwtQWmxsLBaLhbVr1xIMBsnMzGT79u2sXbuW6dOnk5mZicfjkXaFElQn5sLtdnd5Y34IKd2DVVVVLF68mNjYWD7//HPGjh1Lt27dqKurw2g0snDhQnr16sX27dsJBAIyU0Bzc7MEblksFjZt2kRycjKjR48mOzubJ598kvz8fPbv34/L5aKhoYGRI0eSn5/P448/Lturr6/nj3/8I2q1mqamJrlsP/PMM2g0GqZPn45KpWLVqlV4PB72799PRUUFt956K16vlwEDBrBixQpMJhNHjhyhrq5O5l7xer04nU45Vq1Wy/Lly/F6vVKleOyxx8jOzubLL7+UKM5t27axfPly+vTpg16v5+uvvyYxMZEBAwbQ1taG1+vlxRdfpEePHlxxxRWMHDmSadOmcemll9La2orT6WTq1KkYDAbKyspYsmQJAKtWreKqq64iJiaGRx99lJaWFtasWcOHH34oV5NRo0aRn58PwNGjRxk4cCBtbW2UlZUxbty4M3LjBoBm5syZM6FdCjc0NMh8LiKP+g8dtDDULBYL8fHxNDQ00NbWxkUXXcRVV11FIBDAbDaTmZkp3XDXX389ubm5JCcnS+9Cr169SEhIICkpCafTicvl4pxzzmH48OG4XC7Ky8u56KKLGDlyJHFxcSQkJNCnTx/sdjulpaWEw2GGDBlCZmYm0K4H9+7dG6vVSlVVFUlJSeTl5ZGYmEg4HKa2tpa0tDRuvfVWevbsSVtbGzk5OahUKkpKShg0aBC//vWvsVgsZGRkEAgESExMJDs7G41GI70lOp2O8847j7y8PCorK2ltbeWaa66hV69eJCYmYjQaaWpqor6+HpfLRf/+/Zk8eTI2mw2DwUBMTAyVlZVYLBb69OnD8OHDZfUTlUrF0KFDyc3N5eDBg+zfvx+Hw0FbWxuXX345l156qYTyduvWDWj39Qv3bLdu3ejTpw979uyhrKyM8ePHU1hYyKeffsq1116L3W7vdBrA/zaJFbWhoQG1Wk1SUpIsOn2MmhluJ1Sq04NnV6vVslap+M3lcslzhJogcOnCMxIIBLBarfj9fjwej3xYQmdXqVTS4BMboAX2WyRQEhusQ6GQXC0sFgtut5tgMCivF7qziB5qtVrcbrfU/8V+VTGBQiC0trZiMBjQ6/VyTMoQfWtrq/Tfq1QqGaIX+rXZbJb3EO0JJhPBIZGSIxxuz7YgttCJ9CPvvvsuGzZsYN68eTLQJSDFIomU0ruiUqlke7t37+bxxx/nueee45133qGqqoqZM2fKvPo/dWYXfPuTQT2GQiFaWloijil3wChD+0odX2BGBLNF47sBeTy67XA4THNzc4RXQURWxT5LlUolmUKE5sVDVurigNzprzwmdF3hGREeGyV+XNmu6LcYXygUorGxMUIIKHV/0TfxOxAxplAoJHPmKF9mYduI+etI9xaMPGDAAEaPHs2sWbMIBoPcd999EeC0M41OewQVIuuVKg05+J45O3LhKUP2Su+I0qMRfS/ltR21G90XQdHtK69RMn70MWUqjo6kYXS7HbUZ3e7xYgzKPgj9e8SIEfTr10/OlXLOTpS+TtgOt9xyC/v27SMuLo6srCy5MnYkGX/udEopqwV19FA6ouO5D4/nsuvomPK3zl7X0fknO36q/Tre9xP1/2RtnkrfoH0rn8PhIC4u7pQinuLFEarcqFGjZO7IM1GiCzolya5E/3WW4bvo9JAyNtBRzOBEpDxPqEDid2XbZxp1uvKGXq+XfmDl3tAu+u+QcgU42WpxKtefShs/Nzops4sAxP79+9m+fTuDBw8mNzc3Qpp0URf9HKjTRX/dbjcbNmxg0aJFtLS0yChnF3XRz4VOyuwCY33uuecya9Ys2traaGpq6mL2LvrZUack+//X3pvHR1Xd///P2Wcyk5lsQ/ZAk5AQkhBAQKFSVxRxqUurFctnsajtt1Zr3YqtglA/WqyFKhUqWrFVu9APdaEqih9RFgFZhRACIRAgQCZ7JrNvvz/yO8c7QwJBqwa4r8cjj8zce+fes7zv+7zf73PO+6WMF4tEn71FaVSoGMg4qbArY7zKBVlqNEbF6YZ+BVVFiCopKQm/34/L5ep1EkiFioGMfgt7KBQiOzubESNG8OSTT8qMr6qwqzhd0C9hF2ZMd3c3hw4d4sILLyQjI0Pm/1ah4nRAv4VdEIF1dXVxzTXXyBwwqrCrOF3Q7zi7cme/kiRANWNUnC7odzRGr9fLLVviuPK/ChUDHScVdpFdq6mpiVWrVuHz+WReRFWrqzidELc2RpmyQvyJkOOuXbtYtWoVkydPxul0SudUFXgVXxcS5fVkiBN25USRWA4gtsmde+65jB07VqanOFM35ao4faCc1OyPLB636lEs6u/u7o5zQsUkkthKpmp1FQMFve086w1xwi6oRlpaWnrd36kuD1AxECHkUmzI7wtxwp6amkpjY6M6M6ritIJyP68yC8Rx18USpPp0IpBSoUKgP/J6nLCrUHGm4szdSq5CRQJUYVdx1kAVdhVnDVRhV3HW4LhJJdVfVTFQ8UUjhMcJuxpyVHGmIk7Yw+EwnZ2d8ruq5VV83VAq37S0tC+00T8uP/uBAwcIBoN4PB51/YuKrx1K+RN570tKSvq9FiYRcZpdkFUJUgB1LYyKrxNC/oQCtlqt1NXVUVxc/LnuFyfsWq2WcDhMcnIyubm56oZqFV8rxA65+vp63G63tDj27dtHUVHRKd8vTtjFupjY/09tqK5ZV/F1QsghfJZgV1DkKAW+vxaIGmdXcVogFouRkpJCVlaWJJKrq6uLO38yHLdTSfxX/qlQ8XVBKYPRaBSn00k4HMblchGLxairq+u3hlc1u4oBD+Ve00gkQlpaWhxVaF1dXb+ih6qwqxjwUCbXFTSimZmZ5Obm4vV68Xq90qQ5kWb/UuncVfSO3tjzEr+fLuZjX0yAiZ8/b11F5gCdTkdXVxfBYDCO20un09Hd3U00GmXPnj0UFxf3SYI24IRd2TCCtPdMSo+trEdi7p1EcjZx7Is+S0TZeqPX/CJQ9pWImoh7KykzldcnUmieTNBF+SORCF1dXXR0dBz3HMEMo9Pp8Pl8WK1WKTtKDDhhV2YgM5lM+Hw++Sb3pTlOJygZ6SwWC3q9Xh4Ph8P4/f64jvoiL7loJ5HJTTCDnyqUZeiNK1aj0WCz2WSZg8GgpJlUvtiCpVxMXp7s5RP3T09Px2Qy9aqxxcvQ2dlJIBCQx3u7dsAJuxiyWltb2bdvH+Xl5VgsFkljrtFoTuuEqsrO3bFjB42NjXi9XkwmE3l5eZSWlmIwGOSE3hfV7Hq9ni1btmAymRg6dKjUwKdyX6WgCyJh5X2i0SiffPIJ+/fvR6fTUVVVxeDBgyVVvcgRWl9fT319Pbm5uZSVlZ2UdVHc2263k5KS0mv9xP0T2bx7UxKnRPqbaHsp3+7EISrxuPL6voZWca3FYmHPnj3MnTuX+fPnM2TIEMLhMF6vl3A4jM1mO27Cqz/reHobHRLNCnFOWS5l2ZSd01c7JH5PvEb8/vnnn6e+vp7Bgwfjdrtpb29n+PDh3HnnnWRlZcWR8AoH7WTtrTwfiURISkrixRdfJCMjg0ceeUSSAyu1bl/lTiw7gNvtBpCjhUaj4be//S2bN28mPz+f5uZm/vKXv/DQQw9RVVWF1+vFaDTS0dHBvHnziEajeL1eZs2aRUFBAcFgUD6jL9mLRqOyb/o63584e78Tm2o0GrkYJykpiaSkJLRarcwFabVaSU5OlqkMxMONRiPJycnY7XaSkpLkmhuTySRTdojGNJvNcZnIrFar7JSkpCTmz5/P+++/T1pamrwuUTOIiosGEp97q5NOp5Nl0uv12Gw2kpOTZf6RxOuSk5NlvbVaLRaLRbaJEEZhmojfm0wm+ZtE4YxGo1xwwQUsXLiQp59+mgceeICamhpeeeUV2R46nQ6z2UxycjI6nU6aOKI8FoulVyfQbDZjtVrln9lslnVR/iYW60lHbjab446ZTCbZbyaTCaPRSCQSYc6cOXz66adkZGTIdpgwYQKzZ8/m6aef5qmnngJg+fLlcX39t7/9jXA4zG9+8xtSUlL405/+FEc335uwKu36/vydDP3W7JFIhB07dlBQUMDGjRsJBAKMGTMGh8OBy+Vi+/btdHV1UVhYSEVFBZFIBL1ez+HDh9mxYwd+v5+8vDzKyspISkqitrYWrVZLYWGhHBK3bt1KRkYG3/jGN6Rm0mg0BAIBdu7cSX19PWazmY8++oiUlBQGDx4c5xiJTuut4QKBQFx+Sq1WS1tbG/X19XJh0fbt2+nu7mb06NHk5uYSCAQwm820tbVRXV1Na2sr6enpnHPOOYTDYbZs2YLRaKSoqAir1UpXVxd79uwhNzeXrKwswuEwNTU1dHV1yXqL8ipHDq1Wi8Fg4JJLLmH79u1s2LCB7u5ujh49SlpaGk1NTTQ0NDBmzBiysrLo6upiw4YNNDc3k5+fT2VlJXq9nlAohE6nQ6vVUltby759+3A4HLjdblJTU9HpdLS3t3P48GFKS0sxGo3odDoOHjyI2+2mpKQEAJPJxP79+9m9ezcej4fi4mKGDBnCli1bOHjwILW1tTgcDtLT08nOzuaiiy6SGjsnJ4fS0lIZITEYDBw7dowPP/yQ733ve2RlZXHllVfy7LPPUldXR2Fh4VdGI99vYQ+FQsybNw+Hw8H+/fvJzs5m/Pjx7Ny5kyeeeAIAm81GQ0MD3/3ud7n99tuprq5mzpw5RKNRUlNTcblc/PjHP2by5Mm8+OKLWK1WZs+eLRvmqaeeYsqUKZSVlcWZOV1dXSxevBifz8fOnTvZuHEjU6ZMYfr06YTDYWKxGGazmR07dvD2229LRj9R/kgkwpVXXsnw4cPx+/3SaduxYwdPPfUU55xzDkeOHOHAgQMkJSWRm5vLzJkzycvLY9u2bSxYsICDBw9K02ncuHHcdNNNLFy4kJaWFmbMmMHkyZNZvnw5v/vd75g0aRK//OUv6ezs5IknniAWi/Hkk09is9mOy2svRh6xFkmpmf/85z/T2toqQ25lZWW0tbUxe/ZsDh8+zKBBgzh8+DCjR4/mZz/7GWazmUgkwh/+8Afee+89MjMziUajNDU1UVRUhMlkYseOHfzhD39g/vz5DBo0iKSkJN555x22bt3KvHnzsNlsvPnmm7zwwgukpKRgNBp59913ufnmm6U2Xr16Ne+//z4333wzN9xwA11dXVLL+3w+XC4X5eXlcmTbtm0b0WiUcePG0dXVxciRI7FYLGzdupVhw4bh8/m+sH/SH/SLzl3EM4V99fvf/x6r1YpOp+O5556jqKiIRx55BKvVyksvvcTf//53brrpJqnVFi1aRH5+Pvv27cNms+H3+9Hr9XHLiMUzEof7SCRCRkYGc+fO5cEHH2TMmDFMmzaNYDAoowtCQCKRiGTeVtqbiYlYlcO+xWJh+/btjBgxgpEjR7Jx40YaGxvZuXMnubm5LFmyhP3793PFFVcwYcIEli1bxscff8z48eOprKzkrbfeoqamhgsuuIBNmzZhs9nYvXs3R48epampiebmZi655BKysrJkpyrLoNVqMRqNmM1m1q9fz8qVKxk/fjwOh4NoNEprayuzZs0iOzub1NRUnnnmGQ4dOsQTTzxBUVER69atY86cObz99tvceuutLF26lOXLl3P33Xdz0UUXEYvFePDBB+OcQeHoK8ug0fSkj2tsbOTFF19k/Pjx3HnnncRiMVpbW3E6nZSUlPDggw9y0003MXnyZLxeLz6fD71eTzQaxWKxsHHjRo4ePcptt91GOBzGaDRSU1NDdnY2aWlpBAIB0tLSKCgooLa2lmAwGNfnXyb6FY0RghONRrnwwgspKirC6/Vy7NgxDh8+TEVFBZs3byYcDqPT6QgEAhw5coScnBwCgQDLly/nqquuoqioqNdQovIZic8VjSDsXoPBQHJyMm63W3aUVqslFApRUlJCfn7+cY0mnF7RsEobPhQK8Y1vfIP777+fzMxMZsyYwYcffkgwGOTIkSMcOXKElJQURo0aRVlZGYWFhWzatInm5mZGjx7NO++8w549e9izZw8HDhzAZrPhcrnYtWsXnZ2dBINBaWbAZ3ZoNBrFbDazZcsW7rnnHjo6Ojh8+DBDhw5l6tSpxGIxgsEgY8eOZdSoUXR3dxMKhdi+fTsXXHAB5eXldHZ28q1vfYuRI0eyZcsWbr31VjZs2EBZWRlTpkzB7/fjcDik+aRsl97a3mg0Ul9fTyAQ4IYbbsBms+H1esnOzo6z9YUfJkZV0Q+hUIi///3vDBs2jJEjR0pn2OVykZmZidlspru7m+TkZDIzMzlw4IBUTl8FpLArh9VEJDpAwhRoa2tDr9fzySefsH37dlno4cOHAzB69Gi+//3v8/rrr/PWW28xZcoUpk6disFg6DV229fzhSkCPUIiNLWSm9VqtbJu3ToWLlx4XILLcDjMT37yEyZOnIjH45F1Elo/PT0dg8EgIz2ik4SwGgwGnn766bj4dyAQoLy8nJSUFNra2njjjTfw+/1ccMEFvP/++6xatQqTyYTdbqeiokJq1sR6JycnU1xcjE6n45ZbbqGqqgqj0ShfTEC2d3d3N+FwmMzMTDmTGA6HycrK4sCBA7S3t+PxeMjOziYSiciRTjmqnaithRZPSUmRNKDCxDKZTL32gV6vJxKJ4HA4WLZsGTU1NcydO1f2TTgcxuPx4HQ65TFRb7/fTyQSOS7y9WVBD/FhnxPFPJVvcSQSwWq1EgwGueWWW7jooovo7OyU5omIhkybNo1LL72U9957j1dffZWcnBxuvPHGOAdUNFpiGXrrIGXYUqnZA4EAFRUV/PznP+9Vs+fn5x+n2ZXOt/JlFv9FhMJisfDTn/4Uu90un5mcnEx6ejrDhg1j165dbNy4kfT0dK677jr27NlDdXU1er2eiooKnE7ncfFtUebS0lLuvvtuafeKnWIWiyVuZFOWx+12SyETs4YiIia+iz4QpqGor06ni2t3rVYbZ05aLBY8Ho8cpYPBIHq9/jgZES9QOBzGarVSXV3N888/z9SpU6moqMDtdktzSSgS8VvhAxoMhq/EMRXQhsNhfD5f3JCUCHFM2XDhcJiMjAzsdjvr1q0DwOl0YjQa5dRtMBjE6/VSUlLCtGnTcDqd7N+/H61WS0pKCseOHSMYDJKZmcnq1atxuVwymiI0tsFgwGazycb2+XzY7XaMRmOccAoneMyYMZxzzjlxf2PGjCE1NTVuKBdCq9PpZKfAZ5GRcDhMTk4Odrud9vZ2WlpaGDp0KA6Hg+bmZtLS0jCbzVRWVhKLxfB6vZSVlVFSUkJ5ebmcF6isrMRqtfZqRgiB9Hg8eDwevF5v3IilLJsYvfLz8/n4449pb28nKytLRsKGDBmC2WwmMzOTmpoaXC4XOTk51NXVUV9fLzWz3W4nFApx9OhRnE4nR44cYcOGDbKM+fn5+Hw+Vq9ejcViISUlhVAoFKcYQqEQVqtVmpft7e3Mnz+fCRMmMHXqVEKhkAwrG41GUlJSaG9vl5NM0WiU9vZ27Ha7fNG+Es1eV1cnnb1oNEowGMRkMsV1imh8MSUr3mi73c6NN97IM888I4Whrq4Ok8nE448/zp/+9Cc2bdrEyJEjOXDgAG1tbVRVVRGJRBg1ahQrV67k0UcfxWazsXfvXrKysjh69CgajQaHw4HX62XBggWMGDGC733ve6Snp7Ny5Uq8Xi9JSUn853/+p3SOxJZC0aBK9DYho9H07G1sa2uju7tbHvN6vbS1teHxeEhPT+eKK67gpZde4ne/+x0vvPCC9DmeeOIJzj33XEaNGsWrr76K3+9n3LhxRCIRzjvvPF5//XWMRiMVFRWyTEqNqNFo6OrqkopBo4lfTyI0eFJSkix3NBrlu9/9LjNnzuS+++5j5MiRfPLJJxgMBq655ho8Hg+XX345q1evZsaMGYwYMYLdu3ej1+tl3w0ZMoS0tDTmz5/Pxo0b2blzJwaDAa/XS0dHByUlJVx44YUsWbKEPXv2kJaWRnV1NT/5yU8oKSnB4XDwj3/8g127dpGXl8dVV13FQw89RG1tLVarlYceeohAIEBKSgrTp08nNTWVgoIC3n33Xbq7u7HZbLjdbg4dOsTYsWMxm81yVPuyobvvvvtmifQZsViMQCAgJ1cSZyljsRjl5eU4nU5phpSUlFBcXExHR4eM+06ZMoX09HTZYceOHSM5OZmpU6cyfvx4vF4vBQUFpKenc+zYMfR6Pf/1X//FmDFjMJlMDB48GJvNRnp6OkePHsVutzNixAhycnLweDx0d3dTWFhIaWkpED/pIIS6t2PiWvFf2JpVVVUUFhZKJys3N1eOBiUlJQwePBiHw4HT6aSiooLvfve7VFRUyBCmmC+49NJLicVi2O12tFotxcXFfOtb3+pzNjIajTJ06FA5X5BoKoRCIYqKihg8eLC0nbOzs6mqqqK7u5umpiZKS0u54447pEbOzs5m+PDhdHd309nZySWXXMK3v/1tNBoNxcXFWK1WioqKcLvdtLW1MXHiRKZNmybPG41GqqqqSEtLky/9uHHjGDFihOyTjo4OAoEAI0aMwGKx0NnZyZgxY+QkVEpKCk6nk7KyMqnhV6xYQUVFBYWFhdTW1rJ8+XJuuOEGcnJyvtDSCKEI2tra0Gq1DBo0CKPRGNfX8tpYLBbz+/0EAgEOHjyI1+slOTmZ7OzsuDCeRqMhOTmZQCAQ52xBTwJ4nU4nhy8xUogZUeHkRaNRfD6fLIhY8yIcMugxlTwej5w5FFrb5/NJG0+Ez8R+xM/TSGLmMCkpSZocwlQwGo34fD4Z2kxKSgJ6nFIx6omRUKPRSFva5/PJ8pjNZnmdUtCVzxfLHjwez3GaTXne6/UeF8URC6oMBgN+vz/OH1HO4kJPxEmv1+P1eqXtr2xHr9eLxWLB6/VKP0AZwRHXCEdVtF00GiUUCslyKusQi322XkWr1XL//ffLEPKcOXPYu3evXD4grvk8fShGy7q6OvR6PeXl5Vit1l7lIi4/+759++jq6sJkMklhF50kNLlwCJWOk3ICSAiA+Kw0gxLNCdFAidECYcf1FhtXVvTzLv9VNpKyvEpnVVnPxPqJz0qzqDdTSZQ7UcjFd+G0JqYtUdrHyvPifsp2VZZfQJxPdLjF9Lwy9Kq8T2LfJPo3SjNMWR7lLLaAUgaSkpJYs2YN8+bN4+qrr+btt9/m//2//8eFF14Y96KfqtI6VWHXix8pGymx0OJ/YsRE6biKz8oGS1zCqRR6ZQclCm3i+d4aQgjR59HsSmc0UaP0tl6jr/opn91b+ZT/xbXK65TPSjRh+jqf2K7K8gj0tnT2RL/vTXEktn1vZqD4r3TwEyFG5QkTJtDQ0MCOHTu48sormThxIl6vN87E/LIRlxGsrq4Ot9sdp9m/qoKoOPOgVF7Qs3ZJfBdzGQKf1xQ9Zc2uQsWXgcTROjFS9lUrUlXYVXzp6NVZTLD7vwqowq7iS8WJNPnXqtnFm6aMMKhQMVCRKK8nQ68ZwcSUufKYChUDDSKK1N89yXELwUQs1uPx0NDQoGp2FacFlGHgE8msHpATCmI1X0dHhxp2VHFaQAi3WOB2opnYuDi72FLVn7dEhYqBBJ1Oh8FgIDMzs08lrdK5qzhroFJDqjijcCLTW6WGVHHWQE1ZreKsgSrsKs4aqMKu4qyB6qCqOG3wRf1J1UFVcdYgTtg7Ozs5cuRIv1MAq1DxVUGn05GXl0dycvLn3nccN4O6Z88edDodLS0tX2nyGhUqTgSNRiM38g8bNqzPnUgnvU/itjyxY99ut5/WDBcqTn+IVY2tra0EAgGZxaK0tDSODKG/OM5mj0QiWCwWnE6nzOehQsXXAbEKt6urS6Y2MZlM7Nmzh6FDh2K1Wk/pfsdt3hAbWEOhkLryUcXXCuWmjGg0Snp6OiLH0d69e6XA91fDq3TuKgY0lHstLBYLgwYNkmm19+zZQ0lJSb8FXqtGXVQMdAgZFRnJ8vPzZbaCPXv20N3d3S+lrFU1t4qBDuXeCpHeb/DgwUAP52ptba3Mu38i5a1VMgarUDHQkJj2LxKJEAgE0Ov15OTkyFR9QuBPtOlIf/jwYXQ6nQzWqzhzoBQUZd8m5mzpa2faQBn1BalCS0sLra2t8rjIJankbhoxYkQctacSeqPRGJeP/euGsuETk21+FY2vfH5fKRq+6jJ9HijrIeZLEpOWJiaoVf5OeR/4egRflEWQNiSWQZmgNRgMkpSURCgUkimrE6EX3JcwMN5kZcZZJa+PGMag98SdnwdKQU5M9KnRfEa6myjYPp/vc024JQ7J4vOX8eIok8sKyppwOCxpgILBYBxTHXy2j1PwMfUmYF8lRDtlZ2fjdDqPOy/qF41GaWho6DWbsBIyi29flTrZ5uu+hr+TDY19DbGxWA8j8q5du3jttde49dZbcTqdhMNhLBaLZAfp7befpyzimMgVL/IRxmIxnnvuOQ4ePBin9QBuv/12ydHUV1q3k9VdEO6K/O29pYM7Wd36ulZ8NxgMNDY28uc//5m2tjYpyY8cxwAAH2NJREFU3IMHD+bqq6+msLBQUshYrVbWr1/P66+/TkpKCrfeequkmEnM3PtVQan4lBmklXUUL4RSgfSFftG5Jz5AeVw51CvzmStNAeWQ2VuBEodNwcS8YcMGfD6fNBs+/vhjtm3bFsfDo+wI5bHE732VU2D16tXU1NTEJfHfunUrjY2N5OXl4XQ6yczMJDMzU15zoueJ3O/Ksonc7zqdjn379vHBBx/EkZkltnFvSHwmxOdjV5ZDr9fT1dXF2rVrycrKYtKkSQwfPpxNmzYxe/Zsjh07hsFgQK/X43K5WLRokeS9eumll+La4us0Y0RfneivPyNjvxiu4bP87ELQlCmHk5KSCAaDUvsKDanT6TCZTAQCAbkMIRqNEggEpBOhJDzQ6/WSyEyn02G1WmU+G5PJxB//+EfOO+88zj//fDo7O+UMr1IDGI1GqS0Fm5/IJyJsulAohMVikfSGsViMRYsWcd111zFu3Dg6OzulUzRy5EgeeOABOjs7Zb50QQ1vMBgwmUxxrNmiHUwmk1y8FAqFJIuI3+8nLS2N9957j127dnHxxRfLNhGsdKINRJuIKIQgFBMsJ+K40WjEYDBIUmGr1SrXOIk+uPzyy5kwYQKBQICxY8fyyCOPUF1dTV5eHhqNhrfffptoNMrPfvYzPvroI+bOncs111xDUVERgUBA9tFXif6MKKcy+dmvxKYaTQ+/z5/+9CdKS0t599130el0/PSnPyU5OZnXX3+dtWvX4vP5yMvL48YbbyQvLw+/388///lP1q9fTzQaJS0tjRtvvJHy8nJeeeUVjEYj119/PYFAgGg0ysKFCxk5ciSXXHKJ7EitVkt7ezvPP/88Xq+Xbdu2ce+99zJu3DiuvPJK2RE6nY7u7m6WLl1KdXU1Go2GvLw8pk6dyqBBg4hEIrz55pusXr0an89Hbm4uU6dORa/Xs3jxYqLRKGvWrGHbtm1cdNFFXHLJJZJH1O/34/f740YUvV6Px+Ph5ZdfZufOnUSjUSorKyVZbkNDAx988AENDQ14vV4yMjK4/vrrKSwsZPHixWzevJloNMrDDz9MZmYmt912G8uWLUOj0XDddddJhfHCCy9QXl7OpEmT+Oijj6ivryc5OZnly5czefJkvvOd79DQ0MCyZcuor69Hr9czfvx4pkyZEqflBXOh0i4XplRHRwerVq3ioosuwmAwUFFRQUZGBqtWraK0tFTS7ZzuOKkZoxyWV65cyTPPPINGoyE3Nxe73c7SpUtZtGgROTk5nHvuuWzevJn58+djMBjYvHkzL774IgUFBUyYMAGA7u5uDAYDGzduZOvWrXKojEajrFq1SnaYcijXarVySthgMOBwOCS3jyijxWLhrbfe4rXXXqOiooLRo0fj8/nw+XxYLBaWLVvG73//e7Kzszn33HPZunUr8+fPJxKJSLI0k8lESkqKJCUGZFw3GAwSCATkaBKNRpk/fz5vvfUWI0aMYNiwYSxdupS//OUv2Gw29u3bxyeffEJmZibDhw9n27ZtPPvss5I3VDi+drtdkpBt3bqVrVu3xlHerF69mn379mEymXC5XPzhD3/gnXfekaaV2+3mV7/6Fdu2beO8884jKyuL5557jpUrV8qVgQBut5vOzk7Wr1/P4sWLGT9+PKNHjyYSiXDgwAE6OjoYO3asZAkcPnw4O3bsiHvJT3ecVLMrvXqhNe6//37C4TAtLS288cYbTJs2jdtuuw3oYbd+9NFHOXbsGB0dHRgMBm655RZJAe/xePD5fFitVhklEMOQzWaLi5GKDnc4HNxzzz3s2rWLc845hx/+8Id0dXVJjSNClE1NTQwaNIjp06djt9txu90Eg0FaW1tZvnw5t9xyCz/84Q8BqKioYNasWQSDQe6//36mTp3KxIkTufnmm+ns7MTv92O1Wtm4cSPTp0+X2nHIkCHMmTOHnTt3smnTJp544gnGjx8PgNlsZt26dbS2tjJhwgQuvvhiHA4HAEOGDGHhwoW4XC6mTZuGy+WitraWX/7yl4TDYWnqJFLxWK3WOE7R5ORk7rrrLkaOHAnA0qVLaW5uZvHixXJW0ev1snHjRm644Qagh/Hi+eef58UXX6S1tRWz2SxHIK1WS319PWazmaysLGnWFRcXs3nzZtxutyQ7Pt3RbzNGdEBBQQE+n49AIEBzczOhUIj169ezc+dOYrGY1ILNzc2MGjWK5ORk7rnnHi6//HImTZokQ0iJDqLSgVMeE8Lc3t5OJBLB7/fT2dkpWZxF+UKhEOPHj+fDDz/kjjvu4IorruCCCy4gPT2dQ4cOEQwG2bhxIzU1NTKiEwgEaG9vlza6z+eT99br9YRCIQoLC5kyZYrkPxUCcuTIETQaDa+++iqvvvoqer2eI0eOSOY9p9PJgQMHeO+99wiFQuzevVsKs1iuGolE5CSJePH7cmpFHe12OxkZGbS1tWGxWDh27BiRSIR58+ZJX2H37t3k5ubKSEooFOLmm2+mrKyMlpYW3n//fZ588klisRhXX301ra2tcS9VLBYjPT2dSCRCV1cXKSkpZ8QK2H6TEYiKCodShM0ACgoKyM3NlR01ceJEMjIycDqdzJo1i+XLl/PPf/6TDz/8kF/84hcMHTo0Lk6tTKza16SGGPbFJENihMXv9zNmzBhmzpzJm2++yfPPP8+aNWt49NFHpcOXn59Pfn6+LOf5559PXl6eHLmU9xZC8o1vfIOrr75aEtOKcvt8PoxGI8XFxdJcGDZsGBkZGaSkpPDuu+/y3HPP4XA4yMvLo6WlRVJbKpnCE00EZZsoo1jinJgxFKae3+/HZrNRWloqj5WWlpKXlxfXhkVFRYwdO5bu7m5Gjx7NnXfeyf/93/9xzTXXyGCCknRYTMyI/j4T0C9hT+wMIWhpaWmEQiEqKyu5/vrr8Xg8khO0vb2dWKyHJLiiooIbbriBe++9lw8++IDKykoZNRF8p8J0SKSRFNEHZWxdr9dLJ0vY8oInddy4cYwfP561a9fy8MMPs2nTJkaPHk0gEJCEvR6PB5PJhEbTwzIt1lQo7y2ELRwOS7p1MYHhcDhIS0sjEAgwefJkSktL8Xq9mM1mIpEIzc3NLF26lFGjRvGLX/wCm83GG2+8wR//+Mfjwnni5dLr9RiNRtxuN1qtFrPZjM/nk5ywyt8IoTcYDHJH2U033URKSorc0ePxeOJmTkOhEH6/X/KWmkwmKdxJSUkyYibKo4zs9Cesdzrgc200FY2XkZFBeXk5S5YsYe3atdIB+uc//4ler2fXrl2sWbNGMiKLGS6NRkN2dja7d++muroat9vNokWLaG9vl6aJIJptamrC7XZLzdPQ0EBLSwtHjhwBemzWN998E7PZzPr169myZYukLhcRnYyMDCorK3nppZdYs2YNnZ2dbNy4kddee41IJCKJFxoaGmhtbZUmiiirGHXEy+f3+xk2bBjJyck888wz7Nq1i7a2Nt5++23WrFkjp7c7OjpobGxk48aN/O1vf5NmgkbTs6fy2LFjHDt2jMbGRsLhMJmZmdTU1FBbW0tXVxdLliyhqamp14krjaaHjn7MmDF0dXWxYMEC9u/fj8vlYtmyZezYsQOTySRHsY6ODtra2mhsbOTpp5/mwIEDfOtb3yIcDjNo0CDJiC1ewMbGRiwWC3a7/aSTNacL+hVnF9pWxKWhZ5jV6/X84Ac/4Le//S2PPPIIDocDj8fDqFGjuOyyy1i3bh1vvPEGGRkZuN1u8vLymDRpEl6vl4suuoiPP/6Yhx56CL1eT2VlJZdeeimHDx8mFouRm5uL0+nkV7/6FSNGjODRRx+lqqqK1157jdtuu43S0lLuvfde/vrXv5Kamsrll1/OihUr2LRpE2lpaXR0dHDeeedJrf6DH/yAefPmMXPmTOx2uyznxIkTMZvNVFZW8v7777N+/XoZWxfT5spZUaHtBw0axA9/+EMWLVrEz372M8kQff3113P++edz7bXX8sILL3DXXXdhtVopLy/nwIEDtLe3k5+fT1lZGW+++Sb33XcfFouFmTNnctlll/HRRx/xi1/8AoPBQGVlJZdddpkUeNEHok/ES3frrbfyyiuvsGHDBulr3HHHHbLfdDodixcv5qWXXpKa/0c/+hETJ07E7XZTUlJCOBxm79695OXlEQqF2Lt3L4WFhVLrw8BYTvJFcFIeVPjMWWpqasJms8lQnbDtfD4f+/fvp6Ojg+zsbDlREQgEOHz4MC6XC4fDQWFhITabTU4qNTc3U19fj91up7S0VA7bGRkZALS2tlJXV4fT6aSwsJBAIMDu3bsJh8Pk5+eTmZkpw3J5eXl0d3fT0NBAZ2cn6enpFBYWSqp4k8kUV86srCzy8/NlB/r9fnbv3g30+CBpaWm4XC4MBgNpaWlxjiMgQ5Xt7e3U19cTCoUYPHiwjOkbDAaOHDkiI0S5ubkcOnSIlJQUaePv27ePlpYWsrOzycnJwWw209zczL59+7Db7QwdOpRAICDj9G63G7fbjdPpjDNtjEYjTU1NHDhwAJ1Ox5AhQ0hNTZXzBEePHpVOuN1uJzMzk7S0NEkTr9PpeOCBB0hLS+Oxxx5j79693Hvvvdx+++1cdtlldHd3f6XkvP2FMoDRbzr3Ewm7UqspFwkpO13MXIoHB4NBqVESiV7D4bDUOMI+FlEc0fBidlZpPwcCAbRarXyOCNcJ0yAYDKLX6+UspDimXDfRVzmBXu8twqDK9SHKRhR2szCDxESQgJiKF8eNRqMcHTUaDUajUfoBoVBIviR9tYly9jRxGYTRaJTrR0T5Rb1EHwgo9xeLCNOKFSt45plnWLBgAR988AEffvghCxYskCbZQEyt8m8Xduh73UniOXlTjeakx0VhleeUnxN/q3RclccSV0L29bwTlUeUpTcnMPEeieXurR59PSux/Xr7ndI+7qtNTlavE5VDeV9lHbVaLY8//jgNDQ2Ew2Fuv/12zj//fEm5nliegYBTFfZ+TSqJ/4mNr/zcW0Oc6HjiPfrz296OKTVOf57X1zP7c+/ePvdVj77Kf7KynpATqI8+ONV6CSiFxWAwcNttt7Fr1y7sdjujRo2S0bGBJuSfFyrp71kMIcQitOt0Opk8eTKRSESGHuHES8BPJ6jCfpZD6bOIGdNE8+5MgSrsZzmUPhQcb0adCRpdQKVzVwH0rsEHev8nyuvJcFxGMGGf6XQ6NbGpigEPYXL1R057JSMQsWVV2FUMZCijSXBykytO2MUSgI6ODtTkSSpOJ4hJzBMhTtitViudnZ3yu6rVVZwOiMVicnZfzGb3huPo3EV89UyJrao4s6GcUe4r5YbAccKuQsWZioG3ukeFii8JqrCrOGugCruKswaqsKs4a6DSuas4bfBFo4MqnbuKswbHLQQTO1NUDa9iICEWi33htB5x+dkbGxtxuVxy76Oq5VV83VBuKk9PT5cp/j4P4jS71+vFYDDIFMwqVAwEiMxnzc3N6HQ6mcXtVJVxnLBrtVrC4TAOh4OsrKwzIr+fitMXYnFXQ0ODzDfvcrnQaHqySJ+qwEszRvkAsc7g6+bUUXF2QySDElkkBPFDU1MTsVgsLp9lf6CH3nfRiyRIKlR8XVDumItGo6SmphKNRmlubsblcslktf2FHnqS6oiEQoksbqpmV/F1IjFHjjCvOzo6aG5uBpD07v3avFFTUyPpDgOBAGaz+cuvhQoV/YRyR1I0GiUzMxOA9vZ2eb6goOCk99FDT5o2kTJNNV1UDDQIzS7YXwDy8vLQ6/W0tbXR0tKCVqs9qQ2vBxg2bBjBYJB9+/bR3d395ZdehYp+QtjsWq0Wj8eDy+WSuSdF7kvhtEYiEanhezNpZDTGaDTK5Jhnmp3eW17KxLyTiefFd+W5gYDE/I5KtoyBUsZ/F5TmSywWo729nba2Nnle5KgU7dHe3o7T6ZRZkvvM9fjvzBWTKFzKwn0VnaIUiMRnCy5Xkc5ZWRbxO8GgoczeO1CgrIdWq5Us28r6Jn4+XSHqYbfbAY7LO6l8GXw+30nNcCns/Uk2eiqFFIURHSPCR1+loPf27NbWVtxuNw6HA4fDcVzW3Gg0yqeffkpaWhqZmZlxbCEDAUKbt7W14ff7pbOWKOgDpbxfBKI/0tPTZc5+JZR9XVtbe1JF3S8eVPFfDCfKz8pzkUgk7hoAk8mEx+OR7A3i2t5+39t35bWJz0/8TaJGF7xEgunOYDDwv//7v9xxxx2sWLFCOuai7GazmRUrVnDPPfcwY8YMSXvTW/2Uz1R+VpZNeby38ia2R1/tm9jGSUlJvPbaazz22GNxzxUz4Mpj/67R+uuAUnMLXoDe/kSdT4aTCrvSExakUzqdjqSkpLhE9RaLRfKYio7W6/UsWbKE++67j4aGBpKTk+P8A3FvQTkutLAgIYAegRXPFaRfGo0Gi8UiyXITbfBYLIbJZGLp0qXcc8897Ny5k5SUlDjtJ2aJBR+rSOyZnZ3NsGHDGD58uKyLeJ7NZovjKlU+U7SLuFZJsyio5EV5xT3FOYvFIqkZxT0FUYHyHso2S/Q/zGYzixcvZsWKFdjt9uPKeDoiMSX3yf5Ohn5xKmk0Gvx+Py0tLTidToLBIA0NDRQUFOB0Ouns7KS2thaPxyPpW8LhMI2NjaxatYqmpiaampo4cuQIBoMBl8sFQEZGBkajkc7OTjo7O7HZbKSlpcnpYKfTya5duzCbzTidTpqbm8nKykKr1bJjxw58Ph+lpaUkJSVJc0OUt7m5mVWrVrF//36am5s5fPgwycnJcawfHR0d7Nq1C4vFQmlpKZFIhMrKSu6+++64lyAUCrF9+3b8fj92u53c3Nw4hm3RPj6fD7vdzs6dO7FYLOTl5WE0Gunq6qK6uppIJEJRUREOh4NAIIDBYMDr9VJdXU0gECAzM5Ps7GxisRiHDx+W7NfQQ4PT2tpKWlracYIciURobGxk06ZNVFRUcPDgQbRa7XEv+NmOfgm72Wxm+/bt/Pa3v6WyspLm5maqq6t5/PHHaW1t5Xe/+51kfLNarVx77bV8+9vfZubMmfh8PlJTU3n22WdJTk7mxz/+MS+88AJ+v5+ZM2cyfPhwli1bxksvvcSVV17J3XffzTPPPENraytDhw5l5cqVXHLJJXzzm99k7ty5TJo0iUOHDlFTU4Ner6esrIz7778fq9Uq0/VptVrmzJlDU1MTmZmZvPLKK/z5z3/msccek1Qzn376Ke+99x4ulwudTsekSZO466672Lp1K7/5zW8oLCzk4YcfJhwOM3/+fLZt2yaXPpeUlPDwww+TnJxMKBQiKSmJHTt28PLLL2O1Wtm8eTPf/OY3mTVrFmvXrmXhwoWEw2EikQgWi4W7776bUaNG0djYyNy5czl06BA2m43u7m7uvvtuxo0bx+zZs7nuuuu48soriUaj7N27l//5n/9hxowZ5OTkSK2u0+no6Ohg9uzZuN1utmzZwkcffcTkyZP50Y9+JHmTVGE/Bc0ulhSsX78eh8PB6NGjAViwYAF1dXVcfPHFZGVlsWLFCpYtW0Z5eTnDhg1j69atRCIR8vPzGTRoEEajEY/HE8d3FAwG5bFYrIcLqbGxkdbWVgoKCigqKgIgGAyycuVKnE4nFRUV1NfXs23bNqqrq5k4caLkM43FYgwZMoSWlhZCoRA5OTnY7XasVqtM8VddXS3Z4A4dOsSaNWv4zne+g16vp6urS/Karlu3jjVr1pCbm8sVV1zBoUOHpBknRhPoiRTU1dUxcuRInnzySVJTU3G5XCxYsIDKykqmT59OMBjkscce469//Svjx49n69at7Nmzh8cee4zBgwdTW1vL4MGDCQQC+Hy+uEhLNBrF6/XGmUDQw+Nkt9t54IEHmDt3LsOGDePaa6/FYDBIHioVPei3zS40g9PpZMaMGfz617/G6/XS0NBAfn4+N998M//xH//BsGHD6O7uxuVy8fDDD5OamorX62X69Ok8/vjjpKWlSTMi0d4VoSWRyuyqq67i6aef5rrrrpOEWFlZWcyZM4c5c+YwZMgQYrEYLS0tcWWMRqPcd999DBkyhM7OTm666SaeeuopcnNz5Us7cuRInnrqKe677z5sNpsk9hWhSSEkgnhMrKO+6667uOeee45rH+iZif7+97/PmDFjGDJkCDt37sTj8XDxxRfj9/sxGAzSzPD5fPLla2xsJDk5mQsvvJDMzEzJYK202YWPoewPpc8zdOhQTCYTKSkpVFRUkJWVFccJpaKfZASiwYLBIBkZGQwZMgS9Xk9raysajQaPx8PPf/5ztFotXq8Xr9eL3+8nEAjE2fxCMwn0FnEQHRMOhxk6dCh2u11626FQiPT0dBkSHDRoUBwznFII/H5/3Mjh9XqJRCIyYlFWVoZOpyM1NRWz2Uxra2tc1Eej0UhW7JKSEnbv3s1jjz1GXl4et9xyC+eff34cP6h4tl6vp7u7G4PBIO+5cOFCeV7QuXg8HsaMGcNll13Gs88+yz/+8Q+uvfZarrrqKlkXJZSRFWVoV/wXEadwOIzX6yUUCh1HBX+2o9/MG8owkDA3BO3hoEGDuPzyywmHwzJiMHz4cDmMiuiIoHqHnuHXaDTKqEtiJwrBiEQixzljic6o8i/xWCzWk/TSbDbj9XrjzLJEAUr0/sXLNXv2bP71r3+xdu1aDh8+zKJFiyguLiYrKyvuhU68lxglZsyYgd1uJxgMynyEYjS78847mTRpEv/6179YuHAhDoeDCRMmHBeuFCNh4oSRcuo8MSIlRk0VPeiXsIsOVFKaCztcp9Ph8/morKykvLycgwcP0tXVxeDBg+nq6pLCXldXR2Zmpuxst9vNp59+itfrZd26dTK6ITpP/CmReEx87232UFyn1WrZv38/+/fvx+FwSBNFSXfY23dhTrW1tXHw4EGmTZvGueeey6xZs+jq6pLEwaFQCJvNBhAncKJ9QqEQx44dY/To0QSDQUKhUBwPqU6nY8KECVRVVVFbW8v27duZNGkSOp0Ol8sl6dSrq6vx+Xxx2joW65ldFKtVoWdEFDOOyhdRxSk4qJFIBLfbjc/nA3qcxdLSUkaOHMmaNWv46U9/SkZGBi6XC4vFwrx588jMzMRisRCNRnn55Zd55ZVXeOihhygoKKCxsZE//vGPBINBGU5rbm4mHA7j9/txu91SIIQmFs8XnSeuE46cUsMaDAZsNhvRaJTXX3+df/zjHzz44IMAdHZ2xv3G6/Xidrvl5IXb7cbj8WAymfjoo4/49a9/HWe65eTkkJ2dzezZs2lpaeHpp58mGo3Kewiq9bKyMqqqqnjyySfZu3cv2dnZrF27ltLSUqZPn87LL79MTU0NY8eO5cCBAxw9epRrr70Wo9FIcXEx77zzDoMGDaK5uZlPPvkEk8lEZ2cnGo2GpKQkjhw5wpIlSyguLuaCCy4gKSmJtWvXsmTJEqLRKFdccYUkEFYFHnSzZs2aBT0ara2tTTJFC8p26NGO3d3ddHR0UFxcTFVVlRymq6qqgM9syoKCAqZMmUJRURFGo5GUlBRaWlqw2WxkZ2dz3nnnUVlZSVNTE0lJSVRUVDB9+nR0Oh12u50RI0Zw7NgxbDYb5513HoMGDSIWi+F2u+ns7KS8vJyqqipisZ79iHq9ntGjR1NQUCBtclGf9PR0WlpaMJvNZGVlcc4550ibffTo0QwZMkTOB2RkZDBhwgR0Oh0tLS0MHTpUPkf4BRqNhuLiYv77v/+bwsJCKYATJ07E6/XS1tbGueeei81mk07myJEjCQQCfPrpp9TU1OBwOJg4cSIZGRkcPXqUTz/9lO3bt9Pa2spVV13FVVddRTgcprCwkKamJrZs2UIoFOIHP/gBqampOJ1OsrOzcTgctLW1sWHDBjIyMjjnnHMwGAzs37+fmpoarFYro0ePHrCEvf8uCIXV1taGVquVET9xLu7aWA/QaE5M567X6+UCKb/fD3zG1GE2m2XoUMze+f1+OQUfCATw+/04HA4ZCxehtJSUFCKRiJw99fl8WCwWuXRTsGwrny9GF5PJJENsQhiVjp2gT/d4PDgcDqnhjEYjwWBQancxeSRi0haLRT5H0Kt3d3cTCoVITk4GkPTqoh3ELKZwFEUd9Xo9FotFHrdarYRCIblJJhaL4fF4MJvNcZkdhF3v9/tlPF/M8gpqeEDeJxAIYDKZ4urk8/nOaK2u9CP/7XTuiaEs5XFhryoXTikdKHFOaW6IzlMWXEynC7tb6bQqqcfhs2iOOJZYQXG9TqeLe3ETf6McwcTvgLh1Mb3VLxHKuipNqt7aQElFL5ZdKJ1bZZkSF6sp66HcGC+eo6x7Yuj4TMKpCvsp0bknctYILSqEIjH+KwQ28VxvL4+ycL1FEHp7fl+cnaJc4tlCwBKjLX3dV3xPfCkSoza9OcWJiiCxfZQvQ+LLpmyL3p6pfIHEc5QvQmKo8UwW9M+DL0T6q2zE44aME5w72fVfFP0tV3/v09dvTqWOfZXjRL872W++6nY93aEGYVWcNVCFXcVZA1XYVZw1OC5ltfgv/lSoGKhIlNeTIU7YldEQsWZFdXBUDFSIqFV/9zYfF40RExlNTU1xYS0VKgYq+ruyM07Yo9EoNpuN1tZWOjo6vrzSqVDxb0Qs1rObTkz89QU9fPZGZGVlceTIEbmKT4WK0wU6nU4u5YY+5iBiqheq4iyBGnpUccbgZHpbFXYVZwxO5qCqwq7irIEq7CrOGqjCruKsgSrsKs4aqMKu4qyBKuwqzhqowq7irIEq7CrOGvx/M/yq9j43lP4AAAAASUVORK5CYII=;" vertex="1" parent="1">
                    <mxGeometry x="900" y="430" width="180.74" height="260" as="geometry"/>
                </mxCell>
                <mxCell id="73" style="edgeStyle=none;html=1;exitX=1;exitY=0.5;exitDx=0;exitDy=0;entryX=0.006;entryY=0.915;entryDx=0;entryDy=0;entryPerimeter=0;dashed=1;endArrow=circle;endFill=0;endSize=6;" edge="1" parent="1" source="53" target="71">
                    <mxGeometry relative="1" as="geometry"/>
                </mxCell>
                <mxCell id="74" style="edgeStyle=none;html=1;exitX=1;exitY=0.5;exitDx=0;exitDy=0;entryX=0;entryY=0.75;entryDx=0;entryDy=0;dashed=1;endArrow=circle;endFill=0;endSize=6;" edge="1" parent="1" source="47" target="71">
                    <mxGeometry relative="1" as="geometry"/>
                </mxCell>
                <mxCell id="75" style="edgeStyle=none;html=1;exitX=1;exitY=0.5;exitDx=0;exitDy=0;entryX=0;entryY=0.588;entryDx=0;entryDy=0;entryPerimeter=0;dashed=1;endArrow=circle;endFill=0;endSize=6;" edge="1" parent="1" source="45" target="71">
                    <mxGeometry relative="1" as="geometry"/>
                </mxCell>
                <mxCell id="76" value="Product1" style="swimlane;fontStyle=1;align=center;verticalAlign=middle;childLayout=stackLayout;horizontal=1;startSize=29;horizontalStack=0;resizeParent=1;resizeParentMax=0;resizeLast=0;collapsible=0;marginBottom=0;html=1;" vertex="1" parent="1">
                    <mxGeometry x="420" y="720" width="140" height="30" as="geometry"/>
                </mxCell>
                <mxCell id="79" value="Product2" style="swimlane;fontStyle=1;align=center;verticalAlign=middle;childLayout=stackLayout;horizontal=1;startSize=29;horizontalStack=0;resizeParent=1;resizeParentMax=0;resizeLast=0;collapsible=0;marginBottom=0;html=1;" vertex="1" parent="1">
                    <mxGeometry x="650" y="720" width="140" height="30" as="geometry"/>
                </mxCell>
                <mxCell id="80" style="edgeStyle=orthogonalEdgeStyle;html=1;exitX=0;exitY=0.5;exitDx=0;exitDy=0;entryX=0.5;entryY=0;entryDx=0;entryDy=0;endArrow=classic;endFill=0;endSize=6;" edge="1" parent="1" source="49" target="76">
                    <mxGeometry relative="1" as="geometry">
                        <Array as="points">
                            <mxPoint x="370" y="493"/>
                            <mxPoint x="370" y="680"/>
                            <mxPoint x="490" y="680"/>
                        </Array>
                    </mxGeometry>
                </mxCell>
                <mxCell id="81" style="edgeStyle=orthogonalEdgeStyle;html=1;exitX=0;exitY=0.5;exitDx=0;exitDy=0;entryX=0.5;entryY=0;entryDx=0;entryDy=0;endArrow=classic;endFill=0;endSize=6;" edge="1" parent="1" source="51" target="79">
                    <mxGeometry relative="1" as="geometry">
                        <Array as="points">
                            <mxPoint x="610" y="493"/>
                            <mxPoint x="610" y="690"/>
                        </Array>
                    </mxGeometry>
                </mxCell>
            </root>
        </mxGraphModel>
    </diagram>
</mxfile>